<svg width="25.000000" height="25.000000" viewBox="0 0 25 25" fill="none" xmlns="http://www.w3.org/2000/svg" xmlns:xlink="http://www.w3.org/1999/xlink">
	<desc>
			Created with Pixso.
	</desc>
	<defs>
		<clipPath id="clip18_20724">
			<rect id="icon apple/off" width="25.000000" height="25.000000" fill="white" fill-opacity="0"/>
		</clipPath>
	</defs>
	<g clip-path="url(#clip18_20724)">
		<path id="Vector" d="M12.6398 8.23828C13.3159 8.23828 14.5706 7.30859 16.2037 7.30859C17.8072 7.30859 18.8559 7.95898 19.461 8.51855C19.8759 8.90234 19.7052 9.53711 19.2976 9.92773C18.6862 10.5146 17.9578 11.541 17.9578 13.0986C17.9578 14.998 19.0197 16.1172 19.8103 16.6865C20.2496 17.0029 20.5048 17.5742 20.2866 18.0693C19.6202 19.582 18.1023 22.4697 16.2246 22.4697C15.0561 22.4697 14.1477 21.6826 12.9165 21.6826C11.6618 21.6826 10.4168 22.499 9.60577 22.499C7.28262 22.499 4.34763 17.4707 4.34763 13.4277C4.34763 9.45117 6.83191 7.36426 9.16206 7.36426C10.6768 7.36426 11.8523 8.23828 12.6398 8.23828Z" fill="#FFFFFF" fill-opacity="1.000000" fill-rule="evenodd"/>
		<path id="Vector" d="M12.6398 8.23828C13.3159 8.23828 14.5706 7.30859 16.2037 7.30859C17.8072 7.30859 18.8559 7.95898 19.461 8.51855C19.8759 8.90234 19.7052 9.53711 19.2976 9.92773C18.6862 10.5146 17.9578 11.541 17.9578 13.0986C17.9578 14.998 19.0197 16.1172 19.8103 16.6865C20.2496 17.0029 20.5048 17.5742 20.2866 18.0693C19.6202 19.582 18.1023 22.4697 16.2246 22.4697C15.0561 22.4697 14.1477 21.6826 12.9165 21.6826C11.6618 21.6826 10.4168 22.499 9.60577 22.499C7.28262 22.499 4.34763 17.4707 4.34763 13.4277C4.34763 9.45117 6.83191 7.36426 9.16206 7.36426C10.6768 7.36426 11.8523 8.23828 12.6398 8.23828ZM15.0152 8.1875Q15.6452 8.00879 16.2037 8.00879Q17.1472 8.00879 17.9291 8.34668Q18.2884 8.50195 18.6019 8.72266Q18.8034 8.86426 18.9859 9.03223Q18.9959 9.04199 18.9975 9.04688Q19.0035 9.06738 18.9969 9.10742Q18.9855 9.17773 18.9413 9.25781Q18.936 9.2666 18.9305 9.27637Q18.8827 9.35645 18.8129 9.42285Q18.3378 9.87891 18.0023 10.4219Q17.8767 10.625 17.7706 10.8398Q17.6349 11.1152 17.5351 11.4033Q17.2578 12.2021 17.2578 13.0986Q17.2578 14.1074 17.6015 14.9814Q17.7603 15.3848 17.9925 15.7598Q18.0739 15.8916 18.1631 16.0176Q18.6613 16.7217 19.4012 17.2539Q19.5391 17.3535 19.6093 17.4883Q19.6264 17.5215 19.6394 17.5557Q19.6861 17.6807 19.6509 17.7754Q19.6486 17.7812 19.646 17.7871Q18.9453 19.3779 18.154 20.4111Q17.6448 21.0762 17.1539 21.4229Q16.6632 21.7695 16.2246 21.7695Q15.9335 21.7695 15.5822 21.6748Q15.3479 21.6104 14.8597 21.4277Q14.2932 21.2168 13.9815 21.1328Q13.4247 20.9824 12.9165 20.9824Q12.3625 20.9824 11.7027 21.1602Q11.3367 21.2588 10.6727 21.499Q10.2108 21.666 10.0144 21.7227Q9.74909 21.7988 9.60577 21.7988Q9.33839 21.7988 9.01602 21.6445Q8.65739 21.4717 8.26899 21.127Q7.44933 20.3994 6.71076 19.1279Q6.70572 19.1191 6.70069 19.1104Q5.95314 17.8193 5.51309 16.3496Q5.04762 14.7959 5.04762 13.4277Q5.04762 12.1143 5.4315 11.0381Q5.77656 10.0703 6.4025 9.37207Q6.87764 8.84082 7.4663 8.5166Q7.59023 8.44727 7.71919 8.38867Q8.263 8.13867 8.82638 8.08105Q8.99335 8.06445 9.16206 8.06445Q9.65042 8.06445 10.2101 8.21777Q10.5579 8.31348 11.1977 8.55957Q11.6675 8.74023 11.89 8.80859Q12.314 8.9375 12.6398 8.9375Q12.9293 8.9375 13.3194 8.81055Q13.517 8.74609 13.9496 8.57129Q14.6298 8.29688 15.0152 8.1875Z" fill="#363A45" fill-opacity="1.000000" fill-rule="evenodd"/>
		<path id="Vector" d="M13.3434 4.24023C14.0889 3.25781 14.9994 2.83008 15.6477 2.64355C16.1192 2.50781 16.5373 2.86133 16.4794 3.34863C16.4061 3.96582 16.1635 4.84082 15.4507 5.69727C14.623 6.69141 13.7282 6.99902 13.1378 7.08496C12.7377 7.14258 12.4161 6.83496 12.4492 6.43262C12.4928 5.90234 12.6863 5.10645 13.3434 4.24023Z" fill="#00C65E" fill-opacity="1.000000" fill-rule="evenodd"/>
	</g>
</svg>
