<svg width="25.000000" height="25.000000" viewBox="0 0 25 25" fill="none" xmlns="http://www.w3.org/2000/svg" xmlns:xlink="http://www.w3.org/1999/xlink">
	<desc>
			Created with Pixso.
	</desc>
	<defs>
		<clipPath id="clip18_20816">
			<rect id="icon audion tv/off" width="25.000000" height="25.000000" fill="white" fill-opacity="0"/>
		</clipPath>
	</defs>
	<g clip-path="url(#clip18_20816)">
		<rect id="Rectangle 396" x="7.306946" y="3.398438" rx="1.000000" width="10.386021" height="18.203257" fill="#FFFFFF" fill-opacity="1.000000"/>
		<rect id="Rectangle 396" x="7.306946" y="3.398438" rx="1.000000" width="10.386021" height="18.203257" stroke="#363A45" stroke-opacity="1.000000" stroke-width="0.700000"/>
		<path id="Vector" d="M12.4987 11.5303C10.3943 11.5303 8.68644 13.2383 8.68644 15.3428C8.68644 17.4473 10.3943 19.1553 12.4987 19.1553C14.6031 19.1553 16.311 17.4473 16.311 15.3428C16.311 13.2383 14.6031 11.5303 12.4987 11.5303Z" fill="#FFFFFF" fill-opacity="1.000000" fill-rule="evenodd"/>
		<path id="Vector" d="M8.68644 15.3428C8.68644 13.2383 10.3943 11.5303 12.4987 11.5303C14.6031 11.5303 16.311 13.2383 16.311 15.3428C16.311 17.4473 14.6031 19.1553 12.4987 19.1553C10.3943 19.1553 8.68644 17.4473 8.68644 15.3428ZM9.46337 16.0352Q9.38644 15.6982 9.38644 15.3428Q9.38644 14.9873 9.46337 14.6494Q9.52356 14.3857 9.63083 14.1318Q9.73952 13.875 9.88945 13.6455Q10.0655 13.375 10.2984 13.1426Q10.5313 12.9092 10.8013 12.7334Q11.0312 12.583 11.2881 12.4746Q11.5415 12.3672 11.8057 12.3076Q12.1435 12.2305 12.4987 12.2305Q12.854 12.2305 13.1917 12.3076Q13.4559 12.3672 13.7094 12.4746Q13.9662 12.583 14.1961 12.7334Q14.4661 12.9092 14.699 13.1426Q14.9319 13.375 15.108 13.6455Q15.2579 13.875 15.3666 14.1318Q15.4739 14.3857 15.534 14.6494Q15.611 14.9873 15.611 15.3428Q15.611 15.6982 15.534 16.0352Q15.4739 16.2998 15.3666 16.5527Q15.2579 16.8096 15.108 17.04Q14.9319 17.3096 14.699 17.543Q14.4661 17.7754 14.1961 17.9521Q13.9662 18.1016 13.7093 18.21Q13.4559 18.3174 13.1917 18.3779Q12.854 18.4551 12.4987 18.4551Q12.1435 18.4551 11.8058 18.3779Q11.5416 18.3174 11.2881 18.21Q11.0313 18.1016 10.8013 17.9521Q10.5313 17.7754 10.2984 17.543Q10.0655 17.3096 9.88947 17.04Q9.73952 16.8096 9.63083 16.5527Q9.52356 16.2998 9.46337 16.0352Z" fill="#363A45" fill-opacity="1.000000" fill-rule="evenodd"/>
		<path id="Vector" d="M12.5 13.7734C11.6337 13.7734 10.9306 14.4766 10.9306 15.3428C10.9306 16.209 11.6337 16.9121 12.5 16.9121C13.3663 16.9121 14.0694 16.209 14.0694 15.3428C14.0694 14.4766 13.3663 13.7734 12.5 13.7734Z" fill="#00C65E" fill-opacity="1.000000" fill-rule="evenodd"/>
		<path id="Vector" d="M10.9306 15.3428C10.9306 14.4766 11.6337 13.7734 12.5 13.7734C13.3663 13.7734 14.0694 14.4766 14.0694 15.3428C14.0694 16.209 13.3663 16.9121 12.5 16.9121C11.6337 16.9121 10.9306 16.209 10.9306 15.3428ZM11.6936 15.6748Q11.6306 15.5215 11.6306 15.3428Q11.6306 15.1641 11.6936 15.0107Q11.7573 14.8564 11.8854 14.7285Q12.0135 14.6006 12.1681 14.5361Q12.3211 14.4736 12.5 14.4736Q12.6789 14.4736 12.8318 14.5361Q12.9865 14.6006 13.1146 14.7285Q13.2426 14.8564 13.3064 15.0107Q13.3694 15.1641 13.3694 15.3428Q13.3694 15.5215 13.3064 15.6748Q13.2426 15.8291 13.1146 15.957Q12.9865 16.0859 12.8318 16.1494Q12.6789 16.2119 12.5 16.2119Q12.3211 16.2119 12.1681 16.1494Q12.0135 16.0859 11.8854 15.957Q11.7573 15.8291 11.6936 15.6748Z" fill="#00C65E" fill-opacity="1.000000" fill-rule="evenodd"/>
		<path id="Vector" d="M12.5 6.55957C11.6337 6.55957 10.9306 7.2627 10.9306 8.12891C10.9306 8.99512 11.6337 9.69824 12.5 9.69824C13.3663 9.69824 14.0694 8.99512 14.0694 8.12891C14.0694 7.2627 13.3663 6.55957 12.5 6.55957Z" fill="#00C65E" fill-opacity="1.000000" fill-rule="evenodd"/>
		<path id="Vector" d="M10.9306 8.12891C10.9306 7.2627 11.6337 6.55957 12.5 6.55957C13.3663 6.55957 14.0694 7.2627 14.0694 8.12891C14.0694 8.99512 13.3663 9.69824 12.5 9.69824C11.6337 9.69824 10.9306 8.99512 10.9306 8.12891ZM11.6936 8.46094Q11.6306 8.30762 11.6306 8.12891Q11.6306 7.9502 11.6936 7.79688Q11.7573 7.64258 11.8854 7.51465Q12.0135 7.38672 12.1681 7.32227Q12.3211 7.25977 12.5 7.25977Q12.6789 7.25977 12.8318 7.32227Q12.9865 7.38672 13.1146 7.51465Q13.2426 7.64258 13.3064 7.79688Q13.3694 7.9502 13.3694 8.12891Q13.3694 8.30762 13.3064 8.46094Q13.2426 8.61523 13.1146 8.74316Q12.9865 8.87207 12.8318 8.93555Q12.6789 8.99805 12.5 8.99805Q12.3211 8.99805 12.1681 8.93555Q12.0135 8.87207 11.8854 8.74316Q11.7573 8.61523 11.6936 8.46094Z" fill="#00C65E" fill-opacity="1.000000" fill-rule="evenodd"/>
	</g>
</svg>
