<svg width="25.000000" height="25.000000" viewBox="0 0 25 25" fill="none" xmlns="http://www.w3.org/2000/svg" xmlns:xlink="http://www.w3.org/1999/xlink">
	<desc>
			Created with Pixso.
	</desc>
	<defs>
		<clipPath id="clip885_3039">
			<rect id="icon for bussines/off" width="25.000000" height="25.000000" fill="white" fill-opacity="0"/>
		</clipPath>
	</defs>
	<g clip-path="url(#clip885_3039)">
		<path id="Vector" d="M21.0137 6.96533L4.01367 6.96533C3.82422 6.96265 3.63672 6.99756 3.46094 7.06836C3.28516 7.13892 3.125 7.2439 2.99023 7.37695C2.85547 7.51001 2.74805 7.66846 2.67578 7.84326C2.60156 8.01807 2.56445 8.20581 2.56445 8.39526L2.56445 20.9253C2.56445 21.3044 2.71484 21.6682 2.98242 21.9363C3.25195 22.2046 3.61523 22.3552 3.99414 22.3552L20.9941 22.3552C21.3711 22.3525 21.7324 22.2007 22 21.9329C22.2656 21.665 22.4141 21.3027 22.4141 20.9253L22.4141 8.39526C22.4141 8.021 22.2676 7.66187 22.0059 7.39453C21.7441 7.1272 21.3887 6.97314 21.0137 6.96533Z" fill="#FFFFFF" fill-opacity="1.000000" fill-rule="nonzero"/>
		<path id="Vector" d="M4.01367 6.96533C3.82422 6.96265 3.63672 6.99756 3.46094 7.06836C3.28516 7.13892 3.125 7.2439 2.99023 7.37695C2.85547 7.51001 2.74805 7.66846 2.67578 7.84326C2.60156 8.01807 2.56445 8.20581 2.56445 8.39526L2.56445 20.9253C2.56445 21.3044 2.71484 21.6682 2.98242 21.9363C3.25195 22.2046 3.61523 22.3552 3.99414 22.3552L20.9941 22.3552C21.3711 22.3525 21.7324 22.2007 22 21.9329C22.2656 21.665 22.4141 21.3027 22.4141 20.9253L22.4141 8.39526C22.4141 8.021 22.2676 7.66187 22.0059 7.39453C21.7441 7.1272 21.3887 6.97314 21.0137 6.96533L4.01367 6.96533Z" stroke="#363A45" stroke-opacity="1.000000" stroke-width="0.700000"/>
		<path id="Vector" d="M9.67578 7.28516L9.67578 5.45508C9.67383 4.70605 9.96875 3.98706 10.4961 3.45508C10.7578 3.1936 11.0703 2.98706 11.4141 2.84814C11.7578 2.70898 12.125 2.63989 12.4961 2.64502C12.8613 2.6438 13.2227 2.7146 13.5605 2.854C13.8984 2.99316 14.207 3.198 14.4648 3.4563C14.7227 3.71484 14.9277 4.02173 15.0664 4.35962C15.207 4.69751 15.2773 5.05957 15.2754 5.42505L15.2754 7.28516" stroke="#00C65E" stroke-opacity="1.000000" stroke-width="2.000000"/>
		<path id="Vector" d="M20.9043 6.96509L4.10547 6.96509C3.90039 6.96509 3.69922 7.00562 3.50977 7.08423C3.32227 7.16284 3.15234 7.27808 3.00781 7.4231C2.86523 7.56836 2.75195 7.74048 2.67578 7.92969C2.59961 8.11865 2.5625 8.32129 2.56445 8.52515L2.56445 11.9351C2.56445 12.3435 2.72656 12.7351 3.01562 13.0239C3.30469 13.3127 3.69531 13.4751 4.10547 13.4751L20.9043 13.4751C21.1055 13.4751 21.3066 13.4353 21.4922 13.3577C21.6777 13.2803 21.8477 13.1665 21.9902 13.0234C22.1328 12.8804 22.2441 12.7104 22.3203 12.5237C22.3965 12.3369 22.4355 12.137 22.4355 11.9351L22.4355 8.52515C22.4395 8.32153 22.4023 8.11938 22.3262 7.93042C22.252 7.74121 22.1406 7.56909 21.998 7.42383C21.8555 7.27856 21.6855 7.16309 21.498 7.08447C21.3086 7.00562 21.1074 6.96509 20.9043 6.96509Z" fill="#FFFFFF" fill-opacity="1.000000" fill-rule="nonzero"/>
		<path id="Vector" d="M4.10547 6.96509C3.90039 6.96509 3.69922 7.00562 3.50977 7.08423C3.32227 7.16284 3.15234 7.27808 3.00781 7.4231C2.86523 7.56836 2.75195 7.74048 2.67578 7.92969C2.59961 8.11865 2.5625 8.32129 2.56445 8.52515L2.56445 11.9351C2.56445 12.3435 2.72656 12.7351 3.01562 13.0239C3.30469 13.3127 3.69531 13.4751 4.10547 13.4751L20.9043 13.4751C21.1055 13.4751 21.3066 13.4353 21.4922 13.3577C21.6777 13.2803 21.8477 13.1665 21.9902 13.0234C22.1328 12.8804 22.2441 12.7104 22.3203 12.5237C22.3965 12.3369 22.4355 12.137 22.4355 11.9351L22.4355 8.52515C22.4395 8.32153 22.4023 8.11938 22.3262 7.93042C22.252 7.74121 22.1406 7.56909 21.998 7.42383C21.8555 7.27856 21.6855 7.16309 21.498 7.08447C21.3086 7.00562 21.1074 6.96509 20.9043 6.96509L4.10547 6.96509Z" stroke="#363A45" stroke-opacity="1.000000" stroke-width="0.700000"/>
		<path id="Vector" d="M13.6758 11.4143L11.3359 11.4143L11.3359 15.5244L13.6758 15.5244L13.6758 11.4143Z" fill="#00C65E" fill-opacity="1.000000" fill-rule="nonzero"/>
	</g>
</svg>
