<svg width="25.000000" height="25.000000" viewBox="0 0 25 25" fill="none" xmlns="http://www.w3.org/2000/svg" xmlns:xlink="http://www.w3.org/1999/xlink">
	<desc>
			Created with Pixso.
	</desc>
	<defs>
		<clipPath id="clip18_20790">
			<rect id="icon photo video/off" width="25.000000" height="25.000000" fill="white" fill-opacity="0"/>
		</clipPath>
	</defs>
	<g clip-path="url(#clip18_20790)">
		<path id="Vector" d="M15.0596 3.5L9.94044 3.5C9.65982 3.5 9.39211 3.61816 9.20267 3.8252L7.96732 5.1748C7.77789 5.38184 7.51018 5.5 7.22955 5.5L4.5 5.5C3.4 5.5 2.5 6.40039 2.5 7.5L2.5 19.5C2.5 20.5996 3.4 21.5 4.5 21.5L20.5 21.5C21.6 21.5 22.5 20.5996 22.5 19.5L22.5 7.5C22.5 6.40039 21.6 5.5 20.5 5.5L17.7704 5.5C17.4898 5.5 17.2221 5.38184 17.0327 5.1748L15.7973 3.8252C15.6079 3.61816 15.3402 3.5 15.0596 3.5Z" fill="#FFFFFF" fill-opacity="1.000000" fill-rule="evenodd"/>
		<path id="Vector" d="M15.0596 3.5L9.94044 3.5C9.65982 3.5 9.39211 3.61816 9.20267 3.8252L7.96732 5.1748C7.77789 5.38184 7.51018 5.5 7.22955 5.5L4.5 5.5C3.4 5.5 2.5 6.40039 2.5 7.5L2.5 19.5C2.5 20.5996 3.4 21.5 4.5 21.5L20.5 21.5C21.6 21.5 22.5 20.5996 22.5 19.5L22.5 7.5C22.5 6.40039 21.6 5.5 20.5 5.5L17.7704 5.5C17.4898 5.5 17.2221 5.38184 17.0327 5.1748L15.7973 3.8252C15.6079 3.61816 15.3402 3.5 15.0596 3.5ZM9.81905 4.22461Q9.87437 4.2002 9.94044 4.2002L15.0596 4.2002Q15.1256 4.2002 15.181 4.22461Q15.2363 4.24902 15.2809 4.29785L16.5162 5.64746Q16.637 5.7793 16.7793 5.88184Q16.9215 5.9834 17.0852 6.05566Q17.2489 6.12793 17.4202 6.16406Q17.5916 6.2002 17.7704 6.2002L20.5 6.2002Q20.6407 6.2002 20.775 6.22949Q20.8913 6.25488 21.0029 6.30176Q21.1032 6.34473 21.1939 6.40234Q21.3142 6.47949 21.4175 6.58203Q21.5209 6.68555 21.5975 6.80664Q21.6553 6.89648 21.6979 6.99707Q21.7453 7.1084 21.7707 7.22461Q21.8 7.35938 21.8 7.5L21.8 19.5Q21.8 19.6406 21.7707 19.7754Q21.7453 19.8916 21.6979 20.0029Q21.6553 20.1035 21.5976 20.1934Q21.5209 20.3145 21.4175 20.418Q21.3142 20.5205 21.1939 20.5977Q21.1032 20.6553 21.0029 20.6982Q20.8914 20.7451 20.7751 20.7705Q20.6407 20.7998 20.5 20.7998L4.5 20.7998Q4.35928 20.7998 4.22495 20.7705Q4.10865 20.7451 3.99715 20.6982Q3.89684 20.6553 3.80618 20.5977Q3.68583 20.5205 3.58247 20.418Q3.4791 20.3145 3.40243 20.1934Q3.34469 20.1035 3.30208 20.0029Q3.25471 19.8916 3.22932 19.7754Q3.2 19.6406 3.2 19.5L3.2 7.5Q3.2 7.35938 3.22932 7.22461Q3.25471 7.1084 3.30208 6.99707Q3.3447 6.89648 3.40244 6.80664Q3.47912 6.68555 3.58247 6.58203Q3.68583 6.47949 3.80618 6.40234Q3.89684 6.34473 3.99715 6.30176Q4.10866 6.25488 4.22497 6.22949Q4.35928 6.2002 4.5 6.2002L7.22955 6.2002Q7.40845 6.2002 7.57976 6.16406Q7.75107 6.12793 7.91479 6.05566Q8.07852 5.9834 8.22076 5.88184Q8.363 5.7793 8.48376 5.64746L9.71912 4.29785Q9.76371 4.24902 9.81905 4.22461Z" fill="#363A45" fill-opacity="1.000000" fill-rule="evenodd"/>
		<path id="Vector" d="M12.5 8.31445C9.72169 8.31445 7.46684 10.5693 7.46684 13.3477C7.46684 16.126 9.72169 18.3809 12.5 18.3809C15.2783 18.3809 17.5332 16.126 17.5332 13.3477C17.5332 10.5693 15.2783 8.31445 12.5 8.31445Z" fill="#FFFFFF" fill-opacity="1.000000" fill-rule="evenodd"/>
		<path id="Vector" d="M7.46684 13.3477C7.46684 10.5693 9.72169 8.31445 12.5 8.31445C15.2783 8.31445 17.5332 10.5693 17.5332 13.3477C17.5332 16.126 15.2783 18.3809 12.5 18.3809C9.72169 18.3809 7.46684 16.126 7.46684 13.3477ZM8.27278 14.3066Q8.16683 13.8398 8.16683 13.3477Q8.16683 12.8555 8.27278 12.3877Q8.35674 12.0176 8.50722 11.6621Q8.65923 11.3027 8.86914 10.9814Q9.11358 10.6074 9.43652 10.2842Q9.75947 9.96094 10.1337 9.7168Q10.4551 9.50684 10.8143 9.35449Q11.1699 9.2041 11.5405 9.12012Q12.0083 9.01465 12.5 9.01465Q12.9917 9.01465 13.4595 9.12012Q13.8301 9.2041 14.1857 9.35449Q14.5449 9.50684 14.8663 9.7168Q15.2405 9.96094 15.5635 10.2842Q15.8864 10.6074 16.1308 10.9814Q16.3408 11.3027 16.4928 11.6621Q16.6433 12.0176 16.7272 12.3887Q16.8332 12.8555 16.8332 13.3477Q16.8332 13.8398 16.7272 14.3066Q16.6433 14.6777 16.4928 15.0332Q16.3408 15.3926 16.1309 15.7139Q15.8864 16.0879 15.5635 16.4111Q15.2405 16.7344 14.8662 16.9785Q14.5449 17.1885 14.1857 17.3408Q13.8301 17.4912 13.4594 17.5752Q12.9917 17.6807 12.5 17.6807Q12.0083 17.6807 11.5406 17.5752Q11.1699 17.4912 10.8143 17.3408Q10.4551 17.1885 10.1337 16.9785Q9.75948 16.7344 9.43652 16.4111Q9.11356 16.0879 8.86911 15.7139Q8.65922 15.3926 8.50722 15.0332Q8.35674 14.6777 8.27278 14.3066Z" fill="#363A45" fill-opacity="1.000000" fill-rule="evenodd"/>
		<path id="Vector" d="M12.4995 10.0205C10.6637 10.0205 9.1737 11.5107 9.1737 13.3467C9.1737 15.1816 10.6637 16.6719 12.4995 16.6719C14.3353 16.6719 15.8253 15.1816 15.8253 13.3467C15.8253 11.5107 14.3353 10.0205 12.4995 10.0205Z" fill="#00C65E" fill-opacity="1.000000" fill-rule="evenodd"/>
		<path id="Vector" d="M9.1737 13.3467C9.1737 11.5107 10.6637 10.0205 12.4995 10.0205C14.3353 10.0205 15.8253 11.5107 15.8253 13.3467C15.8253 15.1816 14.3353 16.6719 12.4995 16.6719C10.6637 16.6719 9.1737 15.1816 9.1737 13.3467ZM9.93907 13.9326Q9.8737 13.6475 9.8737 13.3467Q9.8737 13.0459 9.93907 12.7598Q9.98978 12.5381 10.0798 12.3252Q10.1713 12.1094 10.2973 11.915Q10.4461 11.6865 10.6431 11.4902Q10.8402 11.293 11.0686 11.1445Q11.2621 11.0186 11.4781 10.9268Q11.6909 10.8369 11.9127 10.7861Q12.1986 10.7207 12.4995 10.7207Q12.8003 10.7207 13.0862 10.7861Q13.308 10.8369 13.5208 10.9268Q13.7369 11.0186 13.9304 11.1445Q14.1588 11.293 14.3558 11.4902Q14.5529 11.6865 14.7017 11.915Q14.8277 12.1094 14.9191 12.3252Q15.0092 12.5381 15.0599 12.7598Q15.1253 13.0459 15.1253 13.3467Q15.1253 13.6475 15.0599 13.9326Q15.0092 14.1553 14.9191 14.3672Q14.8277 14.584 14.7017 14.7773Q14.5529 15.0059 14.3558 15.2031Q14.1588 15.3994 13.9304 15.5488Q13.7369 15.6748 13.5208 15.7656Q13.308 15.8564 13.0862 15.9062Q12.8003 15.9717 12.4995 15.9717Q12.1986 15.9717 11.9127 15.9062Q11.6909 15.8564 11.4781 15.7656Q11.2621 15.6748 11.0686 15.5488Q10.8402 15.3994 10.6431 15.2031Q10.4461 15.0059 10.2973 14.7773Q10.1713 14.584 10.0798 14.3672Q9.98978 14.1553 9.93907 13.9326Z" fill="#00C65E" fill-opacity="1.000000" fill-rule="evenodd"/>
	</g>
</svg>
