<svg width="25.000000" height="25.000000" viewBox="0 0 25 25" fill="none" xmlns="http://www.w3.org/2000/svg" xmlns:xlink="http://www.w3.org/1999/xlink">
	<desc>
			Created with Pixso.
	</desc>
	<defs>
		<clipPath id="clip18_20803">
			<rect id="icon house devices/off" width="25.000000" height="25.000000" fill="white" fill-opacity="0"/>
		</clipPath>
	</defs>
	<g clip-path="url(#clip18_20803)">
		<path id="Vector" d="M15.225 2.94922L9.77499 2.94922C9.35064 2.94922 8.94367 3.11816 8.64362 3.41797C8.34356 3.71777 8.17499 4.125 8.17499 4.54883L8.17499 20.4395C8.17498 20.8643 8.34323 21.2725 8.64301 21.5742C8.94278 21.876 9.34972 22.0469 9.77499 22.0488L15.225 22.0488C15.4359 22.0488 15.6448 22.0078 15.8396 21.9268C16.0344 21.8457 16.2112 21.7266 16.3599 21.5771C16.5086 21.4277 16.6263 21.25 16.7061 21.0547C16.7859 20.8594 16.8263 20.6504 16.825 20.4395L16.825 4.54883C16.825 4.125 16.6564 3.71777 16.3564 3.41797C16.0563 3.11816 15.6493 2.94922 15.225 2.94922Z" fill="#FFFFFF" fill-opacity="1.000000" fill-rule="nonzero"/>
		<path id="Vector" d="M9.77499 2.94922C9.35064 2.94922 8.94367 3.11816 8.64362 3.41797C8.34356 3.71777 8.17499 4.125 8.17499 4.54883L8.17499 20.4395C8.17498 20.8643 8.34323 21.2725 8.64301 21.5742C8.94278 21.876 9.34972 22.0469 9.77499 22.0488L15.225 22.0488C15.4359 22.0488 15.6448 22.0078 15.8396 21.9268C16.0344 21.8457 16.2112 21.7266 16.3599 21.5771C16.5086 21.4277 16.6263 21.25 16.7061 21.0547C16.7859 20.8594 16.8263 20.6504 16.825 20.4395L16.825 4.54883C16.825 4.125 16.6564 3.71777 16.3564 3.41797C16.0563 3.11816 15.6493 2.94922 15.225 2.94922L9.77499 2.94922Z" stroke="#363A45" stroke-opacity="1.000000" stroke-width="0.700000"/>
		<path id="Vector" d="M16.4783 9.18945L8.52515 9.18945L8.52515 9.88965L16.4783 9.88965L16.4783 9.18945Z" fill="#363A45" fill-opacity="1.000000" fill-rule="nonzero"/>
		<path id="Vector" d="M9.08514 5.98926L9.08514 7.80957L10.0851 7.80957L10.0851 5.98926L9.08514 5.98926Z" fill="#00C65E" fill-opacity="1.000000" fill-rule="nonzero"/>
		<path id="Vector" d="M9.08514 11.2686L9.08514 13.0889L10.0851 13.0889L10.0851 11.2686L9.08514 11.2686Z" fill="#00C65E" fill-opacity="1.000000" fill-rule="nonzero"/>
		<path id="Vector" d="M16.4783 9.18945L15.3283 9.18945C15.3732 8.09473 15.1822 7.00391 14.7683 5.98926C14.284 4.90039 13.5132 3.96387 12.5383 3.2793L15.3583 3.2793C15.6553 3.2793 15.9402 3.39746 16.1502 3.60742C16.3603 3.81738 16.4783 4.10254 16.4783 4.39941L16.4783 9.18945Z" fill="#00C65E" fill-opacity="1.000000" fill-rule="nonzero"/>
	</g>
</svg>
