<svg width="25.000000" height="25.000000" viewBox="0 0 25 25" fill="none" xmlns="http://www.w3.org/2000/svg" xmlns:xlink="http://www.w3.org/1999/xlink">
	<desc>
			Created with Pixso.
	</desc>
	<defs>
		<clipPath id="clip885_3040">
			<rect id="icon survice/off" width="25.000000" height="25.000000" fill="white" fill-opacity="0"/>
		</clipPath>
	</defs>
	<g clip-path="url(#clip885_3040)">
		<path id="Vector" d="M13.957 6.60132L15.6074 7.60132L7.35742 21.8313C7.3125 21.9185 7.24805 21.9946 7.16992 22.0549C7.09375 22.1152 7.00391 22.1584 6.9082 22.1814C6.81445 22.2075 6.7168 22.2146 6.62109 22.2026C6.52539 22.1907 6.43164 22.1597 6.34766 22.1113L5.98828 21.9014C5.90234 21.8535 5.83008 21.7888 5.77148 21.7114C5.71289 21.634 5.66992 21.5457 5.64844 21.4514C5.5957 21.2595 5.62109 21.0549 5.7168 20.8813L13.957 6.61133L13.957 6.60132Z" fill="#FFFFFF" fill-opacity="1.000000" fill-rule="nonzero"/>
		<path id="Vector" d="M15.6074 7.60132L7.35742 21.8313C7.3125 21.9185 7.24805 21.9946 7.16992 22.0549C7.09375 22.1152 7.00391 22.1584 6.9082 22.1814C6.81445 22.2075 6.7168 22.2146 6.62109 22.2026C6.52539 22.1907 6.43164 22.1597 6.34766 22.1113L5.98828 21.9014C5.90234 21.8535 5.83008 21.7888 5.77148 21.7114C5.71289 21.634 5.66992 21.5457 5.64844 21.4514C5.5957 21.2595 5.62109 21.0549 5.7168 20.8813L13.957 6.61133L13.957 6.60132L15.6074 7.60132Z" stroke="#363A45" stroke-opacity="1.000000" stroke-width="0.700000"/>
		<path id="Vector" d="M18.9082 8.46167L15.1387 7.46167L11.1387 4.86182L12.3496 2.79175L16.6484 4.94165L19.3789 7.72168L18.9082 8.46167Z" fill="#FFFFFF" fill-opacity="1.000000" fill-rule="nonzero"/>
		<path id="Vector" d="M15.1387 7.46167L11.1387 4.86182L12.3496 2.79175L16.6484 4.94165L19.3789 7.72168L18.9082 8.46167L15.1387 7.46167Z" stroke="#363A45" stroke-opacity="1.000000" stroke-width="0.700000"/>
		<path id="Vector" d="M18.8691 7.74146L16.418 5.21143L15.1777 4.58154L12.498 3.22144L11.8887 4.28149L18.7383 8.05151L18.8984 7.77148L18.8691 7.74146Z" fill="#00C65E" fill-opacity="1.000000" fill-rule="nonzero"/>
	</g>
</svg>
