<svg width="25.000000" height="25.000000" viewBox="0 0 25 25" fill="none" xmlns="http://www.w3.org/2000/svg" xmlns:xlink="http://www.w3.org/1999/xlink">
	<desc>
			Created with Pixso.
	</desc>
	<defs>
		<clipPath id="clip885_3038">
			<rect id="icon charity/off" width="25.000000" height="25.000000" fill="white" fill-opacity="0"/>
		</clipPath>
	</defs>
	<g clip-path="url(#clip885_3038)">
		<path id="Vector" d="M15.0801 10.7114L15.0801 10.8315C15.0742 10.925 15.0332 11.0132 14.9629 11.0767C14.7148 11.1592 14.2266 11.1316 14.2598 10.3613L14.2598 8.15137C14.2285 7.16138 14.1895 6.03149 14.1387 5.44141C14.1289 4.98901 14.0527 4.54077 13.9082 4.11133C13.875 4.01172 13.8125 3.92456 13.7285 3.86133C13.6426 3.80005 13.5352 3.77173 13.4297 3.78149C13.3242 3.77417 13.2207 3.8064 13.1387 3.87134C13.043 3.96606 12.9707 4.08276 12.9297 4.21143C12.7617 4.73975 12.6641 5.28784 12.6387 5.84131C12.5801 6.55151 12.5 7.58154 12.5 8.44141C12.4492 8.86133 12.4492 10.1714 12.4492 10.4414C12.4551 10.5513 12.4551 10.6616 12.4492 10.7715L12.4492 10.8813C12.4492 10.9768 12.4121 11.0684 12.3438 11.136C12.2754 11.2036 12.1855 11.2415 12.0898 11.2415C11.9941 11.2415 11.9023 11.2036 11.834 11.136C11.7676 11.0684 11.7285 10.9768 11.7285 10.8813L11.2285 6.31152C11.1914 6.05151 11.1074 5.80078 10.9785 5.57153C10.9551 5.52271 10.918 5.48145 10.8711 5.45142C10.8262 5.42163 10.7734 5.4043 10.7188 5.40137C10.6895 5.40137 10.5801 5.4314 10.4688 5.74146C10.3223 6.23413 10.2578 6.7478 10.2793 7.26147L10.2793 13.7615C10.2773 13.8411 10.25 13.9182 10.2031 13.9812C10.1543 14.0442 10.0859 14.0898 10.0098 14.1113C9.93164 14.1296 9.85156 14.1218 9.7793 14.0894C9.70703 14.0569 9.64648 14.0012 9.60938 13.9314L8.05859 11.2214C8.05859 11.2214 7.11719 9.39233 6.55859 9.73901C5.99805 10.0854 6.89844 11.8713 6.89844 11.8713C6.95898 12.0215 7.05859 12.2314 7.16992 12.5015C7.39844 13.0115 7.70898 13.7314 8.05859 14.5015C8.75 16.0615 11.0391 20.1714 11.6094 21.2214L17.0586 21.2214C17.3184 20.7615 17.6387 20.0515 17.8691 19.5315C17.959 19.3413 18.0293 19.1714 18.0898 19.0615C18.2676 18.5984 18.4004 18.1196 18.4883 17.6313C18.5586 17.1013 18.6191 16.4814 18.6191 15.7515L18.6191 8.35132C18.6484 7.71655 18.5566 7.08203 18.3496 6.48145C18.1641 5.92114 17.8379 6.2146 17.6992 6.4314C17.4961 6.80493 17.4004 7.22681 17.4199 7.65137L17.2793 10.7915C17.2773 10.8853 17.2383 10.9741 17.1699 11.0396C17.1035 11.105 17.0137 11.1414 16.9199 11.1414C16.873 11.1428 16.8262 11.1348 16.7812 11.1177C16.7383 11.1008 16.6992 11.0752 16.666 11.0425C16.6309 11.0098 16.6055 10.9709 16.5859 10.9277C16.5684 10.8845 16.5586 10.8381 16.5586 10.7915L16.5586 10.5115L16.5586 9.75146C16.5391 9.12134 16.4785 7.34131 16.4785 6.41138C16.4922 5.82812 16.3945 5.2478 16.1895 4.70142C16.1504 4.61328 16.0879 4.53735 16.0098 4.48145C15.9473 4.46289 15.8809 4.46289 15.8184 4.48145C15.7754 4.47852 15.7305 4.48486 15.6895 4.50049C15.6484 4.51587 15.6113 4.54028 15.5801 4.57153C15.4863 4.6792 15.418 4.80542 15.3789 4.94141C15.2715 5.34253 15.2129 5.75586 15.209 6.17139C15.1992 6.58154 15.1289 7.52148 15.1289 8.36133C15.0801 8.76147 15.0801 10.0715 15.0801 10.3613L15.0801 10.7114Z" fill="#FFFFFF" fill-opacity="1.000000" fill-rule="nonzero"/>
		<path id="Vector" d="M15.0801 10.7114L15.0801 10.3613C15.0801 10.0715 15.0801 8.76147 15.1289 8.36133C15.1289 7.52148 15.1992 6.58154 15.209 6.17139C15.2129 5.75586 15.2715 5.34253 15.3789 4.94141C15.418 4.80542 15.4863 4.6792 15.5801 4.57153C15.6113 4.54028 15.6484 4.51587 15.6895 4.50049C15.7305 4.48486 15.7754 4.47852 15.8184 4.48145C15.8809 4.46289 15.9473 4.46289 16.0098 4.48145C16.0879 4.53735 16.1504 4.61328 16.1895 4.70142C16.3945 5.2478 16.4922 5.82812 16.4785 6.41138C16.4785 7.34131 16.5391 9.12134 16.5586 9.75146C16.5586 10.0715 16.5586 10.3315 16.5586 10.5115L16.5586 10.7915C16.5586 10.8381 16.5684 10.8845 16.5859 10.9277C16.6055 10.9709 16.6309 11.0098 16.666 11.0425C16.6992 11.0752 16.7383 11.1008 16.7812 11.1177C16.8262 11.1348 16.873 11.1428 16.9199 11.1414C17.0137 11.1414 17.1035 11.105 17.1699 11.0396C17.2383 10.9741 17.2773 10.8853 17.2793 10.7915L17.4199 7.65137C17.4004 7.22681 17.4961 6.80493 17.6992 6.4314C17.8379 6.2146 18.1641 5.92114 18.3496 6.48145C18.5566 7.08203 18.6484 7.71655 18.6191 8.35132L18.6191 15.7515C18.6191 16.4814 18.5586 17.1013 18.4883 17.6313C18.4004 18.1196 18.2676 18.5984 18.0898 19.0615C18.0293 19.1714 17.959 19.3413 17.8691 19.5315C17.6387 20.0515 17.3184 20.7615 17.0586 21.2214L11.6094 21.2214C11.0391 20.1714 8.75 16.0615 8.05859 14.5015C7.70898 13.7314 7.39844 13.0115 7.16992 12.5015C7.05859 12.2314 6.95898 12.0215 6.89844 11.8713C6.89844 11.8713 5.99805 10.0854 6.55859 9.73901C7.11719 9.39233 8.05859 11.2214 8.05859 11.2214L9.60938 13.9314C9.64648 14.0012 9.70703 14.0569 9.7793 14.0894C9.85156 14.1218 9.93164 14.1296 10.0098 14.1113C10.0859 14.0898 10.1543 14.0442 10.2031 13.9812C10.25 13.9182 10.2773 13.8411 10.2793 13.7615L10.2793 7.26147C10.2578 6.7478 10.3223 6.23413 10.4688 5.74146C10.5801 5.4314 10.6895 5.40137 10.7188 5.40137C10.7734 5.4043 10.8262 5.42163 10.8711 5.45142C10.918 5.48145 10.9551 5.52271 10.9785 5.57153C11.1074 5.80078 11.1914 6.05151 11.2285 6.31152L11.7285 10.8813C11.7285 10.9768 11.7676 11.0684 11.834 11.136C11.9023 11.2036 11.9941 11.2415 12.0898 11.2415C12.1855 11.2415 12.2754 11.2036 12.3438 11.136C12.4121 11.0684 12.4492 10.9768 12.4492 10.8813L12.4492 10.7715C12.4551 10.6616 12.4551 10.5513 12.4492 10.4414C12.4492 10.1714 12.4492 8.86133 12.5 8.44141C12.5 7.58154 12.5801 6.55151 12.6387 5.84131C12.6641 5.28784 12.7617 4.73975 12.9297 4.21143C12.9707 4.08276 13.043 3.96606 13.1387 3.87134C13.2207 3.8064 13.3242 3.77417 13.4297 3.78149C13.5352 3.77173 13.6426 3.80005 13.7285 3.86133C13.8125 3.92456 13.875 4.01172 13.9082 4.11133C14.0527 4.54077 14.1289 4.98901 14.1387 5.44141C14.1895 6.03149 14.2285 7.16138 14.2598 8.15137C14.2598 8.65137 14.2598 10.0215 14.2598 10.3613C14.2266 11.1316 14.7148 11.1592 14.9629 11.0767C15.0332 11.0132 15.0742 10.925 15.0801 10.8315L15.0801 10.7114Z" stroke="#363A45" stroke-opacity="1.000000" stroke-width="0.700000" stroke-linejoin="round"/>
		<path id="Vector" d="M14.1484 16.0527L14.3887 16.2029L15.5 15.6328C16.1074 15.2661 16.6836 14.8479 17.2188 14.3828C17.4551 14.2007 17.6445 13.9683 17.7793 13.7029C17.918 13.4429 18 13.1567 18.0195 12.8628C18.0234 12.4819 17.9121 12.1086 17.6992 11.7927C17.4766 11.4785 17.168 11.2356 16.8086 11.0928C16.4434 10.9592 16.0488 10.9348 15.6699 11.0229C15.2871 11.1108 14.9395 11.3088 14.6699 11.5928C14.6504 11.6157 14.625 11.634 14.5977 11.6462C14.5703 11.6584 14.5391 11.6641 14.5098 11.6628C14.4531 11.6589 14.3984 11.634 14.3594 11.5928C14.0977 11.2971 13.7461 11.0938 13.3594 11.0129C12.9883 10.8975 12.5898 10.8975 12.2188 11.0129C11.8555 11.1494 11.5391 11.3892 11.3086 11.7029C11.082 12.0142 10.957 12.3877 10.9492 12.7729C10.957 13.0647 11.0293 13.3516 11.1602 13.6128C11.291 13.8745 11.4746 14.106 11.6992 14.2927C12.2148 14.7493 12.7676 15.1638 13.3496 15.5327L14.1484 16.0527Z" fill="#00C65E" fill-opacity="1.000000" fill-rule="nonzero"/>
		<path id="Vector" d="M14.1484 16.0527L13.3496 15.5327C12.7676 15.1638 12.2148 14.7493 11.6992 14.2927C11.4746 14.106 11.291 13.8745 11.1602 13.6128C11.0293 13.3516 10.957 13.0647 10.9492 12.7729C10.957 12.3877 11.082 12.0142 11.3086 11.7029C11.5391 11.3892 11.8555 11.1494 12.2188 11.0129C12.5898 10.8975 12.9883 10.8975 13.3594 11.0129C13.7461 11.0938 14.0977 11.2971 14.3594 11.5928C14.3984 11.634 14.4531 11.6589 14.5098 11.6628C14.5391 11.6641 14.5703 11.6584 14.5977 11.6462C14.625 11.634 14.6504 11.6157 14.6699 11.5928C14.9395 11.3088 15.2871 11.1108 15.6699 11.0229C16.0488 10.9348 16.4434 10.9592 16.8086 11.0928C17.168 11.2356 17.4766 11.4785 17.6992 11.7927C17.9121 12.1086 18.0234 12.4819 18.0195 12.8628C18 13.1567 17.918 13.4429 17.7793 13.7029C17.6445 13.9683 17.4551 14.2007 17.2188 14.3828C16.6836 14.8479 16.1074 15.2661 15.5 15.6328L14.3887 16.2029L14.1484 16.0527Z" stroke="#FFFFFF" stroke-opacity="1.000000" stroke-width="0.400000" stroke-linejoin="round"/>
	</g>
</svg>
