<svg width="25.000000" height="25.000000" viewBox="0 0 25 25" fill="none" xmlns="http://www.w3.org/2000/svg" xmlns:xlink="http://www.w3.org/1999/xlink">
	<desc>
			Created with Pixso.
	</desc>
	<defs>
		<clipPath id="clip885_3051">
			<rect id="icon phone accessories/off" width="25.000000" height="25.000000" fill="white" fill-opacity="0"/>
		</clipPath>
	</defs>
	<g clip-path="url(#clip885_3051)">
		<path id="Vector" d="M21.0039 9.32007C21.0039 5.56006 17.1836 2.5 12.5039 2.5C7.82422 2.5 3.99414 5.56006 3.99414 9.32007C4.04102 11.0056 4.26562 12.6816 4.66406 14.3201L4.98438 16.03C5.02148 16.2383 5.10352 16.4358 5.22461 16.6101C5.45508 16.9617 5.81445 17.2095 6.22461 17.3C6.43164 17.3401 6.64648 17.3401 6.85352 17.3L7.30469 17.23C7.51367 17.186 7.71289 17.1047 7.89453 16.99C8.07031 16.8713 8.21875 16.7183 8.33398 16.54C8.48633 16.3577 8.60352 16.147 8.67383 15.9199C8.71875 15.7124 8.71875 15.4976 8.67383 15.29L8.1543 12.8701C8.10742 12.6599 8.02148 12.4602 7.9043 12.28C7.78516 12.1016 7.63281 11.9485 7.45508 11.8301C7.2793 11.7097 7.08203 11.6279 6.875 11.5901C6.66211 11.55 6.44531 11.55 6.23438 11.5901L5.80469 11.6699C5.68359 11.6948 5.56445 11.7351 5.45508 11.79C5.30664 10.9783 5.23242 10.155 5.23438 9.33008C5.23438 6.26001 8.48438 3.77002 12.4844 3.77002C16.4844 3.77002 19.7539 6.26001 19.7539 9.32007C19.7598 10.1479 19.6895 10.9749 19.5449 11.79C19.4277 11.7322 19.3027 11.6917 19.1738 11.6699L18.7441 11.5801C18.5332 11.5364 18.3164 11.5349 18.1055 11.5759C17.8965 11.6167 17.6953 11.6992 17.5156 11.8184C17.3379 11.9375 17.1836 12.0908 17.0664 12.2695C16.9473 12.4485 16.8652 12.6492 16.8242 12.8601L16.3438 15.27C16.2598 15.6924 16.3457 16.1311 16.584 16.49C16.8164 16.8425 17.1738 17.093 17.584 17.1899L18.0137 17.27C18.2227 17.3135 18.4395 17.3145 18.6484 17.2734C18.8574 17.2322 19.0566 17.1494 19.2344 17.03C19.584 16.7974 19.8301 16.4395 19.9238 16.03L20.2637 14.3301C20.7227 12.6982 20.9727 11.0146 21.0039 9.32007Z" fill="#FFFFFF" fill-opacity="1.000000" fill-rule="nonzero"/>
		<path id="Vector" d="M12.5039 2.5C7.82422 2.5 3.99414 5.56006 3.99414 9.32007C4.04102 11.0056 4.26562 12.6816 4.66406 14.3201L4.98438 16.03C5.02148 16.2383 5.10352 16.4358 5.22461 16.6101C5.45508 16.9617 5.81445 17.2095 6.22461 17.3C6.43164 17.3401 6.64648 17.3401 6.85352 17.3L7.30469 17.23C7.51367 17.186 7.71289 17.1047 7.89453 16.99C8.07031 16.8713 8.21875 16.7183 8.33398 16.54C8.48633 16.3577 8.60352 16.147 8.67383 15.9199C8.71875 15.7124 8.71875 15.4976 8.67383 15.29L8.1543 12.8701C8.10742 12.6599 8.02148 12.4602 7.9043 12.28C7.78516 12.1016 7.63281 11.9485 7.45508 11.8301C7.2793 11.7097 7.08203 11.6279 6.875 11.5901C6.66211 11.55 6.44531 11.55 6.23438 11.5901L5.80469 11.6699C5.68359 11.6948 5.56445 11.7351 5.45508 11.79C5.30664 10.9783 5.23242 10.155 5.23438 9.33008C5.23438 6.26001 8.48438 3.77002 12.4844 3.77002C16.4844 3.77002 19.7539 6.26001 19.7539 9.32007C19.7598 10.1479 19.6895 10.9749 19.5449 11.79C19.4277 11.7322 19.3027 11.6917 19.1738 11.6699L18.7441 11.5801C18.5332 11.5364 18.3164 11.5349 18.1055 11.5759C17.8965 11.6167 17.6953 11.6992 17.5156 11.8184C17.3379 11.9375 17.1836 12.0908 17.0664 12.2695C16.9473 12.4485 16.8652 12.6492 16.8242 12.8601L16.3438 15.27C16.2598 15.6924 16.3457 16.1311 16.584 16.49C16.8164 16.8425 17.1738 17.093 17.584 17.1899L18.0137 17.27C18.2227 17.3135 18.4395 17.3145 18.6484 17.2734C18.8574 17.2322 19.0566 17.1494 19.2344 17.03C19.584 16.7974 19.8301 16.4395 19.9238 16.03L20.2637 14.3301C20.7227 12.6982 20.9727 11.0146 21.0039 9.32007C21.0039 5.56006 17.1836 2.5 12.5039 2.5Z" stroke="#363A45" stroke-opacity="1.000000" stroke-width="0.700000"/>
		<path id="Vector" d="M15.584 7.95996L9.42383 7.95996C9.33203 7.95972 9.24219 7.97827 9.1582 8.01465C9.07617 8.05078 9 8.104 8.9375 8.17065C8.87695 8.2373 8.82812 8.31616 8.79883 8.4021C8.76953 8.48804 8.75586 8.5791 8.76367 8.66992L8.76367 21.8398C8.76367 22.0149 8.83398 22.1829 8.95703 22.3066C9.08008 22.4304 9.24805 22.5 9.42383 22.5L15.584 22.5C15.7578 22.4973 15.9219 22.4268 16.043 22.3032C16.166 22.1797 16.2344 22.0132 16.2344 21.8398L16.2344 8.66992C16.2402 8.58008 16.2285 8.4895 16.1992 8.4043C16.1699 8.31909 16.123 8.24072 16.0625 8.17432C16.002 8.10767 15.9277 8.05444 15.8457 8.01758C15.7637 7.98071 15.6738 7.96118 15.584 7.95996Z" fill="#FFFFFF" fill-opacity="1.000000" fill-rule="nonzero"/>
		<path id="Vector" d="M9.42383 7.95996C9.33203 7.95972 9.24219 7.97827 9.1582 8.01465C9.07617 8.05078 9 8.104 8.9375 8.17065C8.87695 8.2373 8.82812 8.31616 8.79883 8.4021C8.76953 8.48804 8.75586 8.5791 8.76367 8.66992L8.76367 21.8398C8.76367 22.0149 8.83398 22.1829 8.95703 22.3066C9.08008 22.4304 9.24805 22.5 9.42383 22.5L15.584 22.5C15.7578 22.4973 15.9219 22.4268 16.043 22.3032C16.166 22.1797 16.2344 22.0132 16.2344 21.8398L16.2344 8.66992C16.2402 8.58008 16.2285 8.4895 16.1992 8.4043C16.1699 8.31909 16.123 8.24072 16.0625 8.17432C16.002 8.10767 15.9277 8.05444 15.8457 8.01758C15.7637 7.98071 15.6738 7.96118 15.584 7.95996L9.42383 7.95996Z" stroke="#363A45" stroke-opacity="1.000000" stroke-width="0.700000"/>
		<path id="Vector" d="M18.5098 12.6846L18.8848 12.7549C19.3125 12.8357 19.5957 13.2488 19.5137 13.6777L19.1738 15.4858C19.0918 15.9146 18.6797 16.1965 18.25 16.1157L17.877 16.0452C17.4473 15.9644 17.166 15.5513 17.2461 15.1226L17.5879 13.3145C17.668 12.8857 18.082 12.6035 18.5098 12.6846Z" fill="#00C65E" fill-opacity="1.000000" fill-rule="evenodd"/>
		<path id="Vector" d="M7.08984 16.0508L6.71484 16.1211C6.28711 16.2019 5.87305 15.9199 5.79297 15.4912L5.45117 13.6831C5.37109 13.2544 5.65234 12.8413 6.08203 12.7603L6.45508 12.6899C6.88477 12.6091 7.29688 12.8911 7.37695 13.3198L7.71875 15.1279C7.79883 15.5566 7.51758 15.9697 7.08984 16.0508Z" fill="#00C65E" fill-opacity="1.000000" fill-rule="evenodd"/>
		<path id="Rectangle 374 (Stroke)" d="M10.5352 9.07153L10.5352 7.95996L14.4609 7.95996L14.4609 9.07153C14.4609 9.34766 14.2383 9.57153 13.9609 9.57153L11.0352 9.57153C10.7598 9.57153 10.5352 9.34766 10.5352 9.07153Z" fill="#363A45" fill-opacity="1.000000" fill-rule="evenodd"/>
	</g>
</svg>
