<svg width="25.000000" height="25.000000" viewBox="0 0 25 25" fill="none" xmlns="http://www.w3.org/2000/svg" xmlns:xlink="http://www.w3.org/1999/xlink">
	<desc>
			Created with Pixso.
	</desc>
	<defs>
		<clipPath id="clip885_3045">
			<rect id="icon hobby/off" width="25.000000" height="25.000000" fill="white" fill-opacity="0"/>
		</clipPath>
	</defs>
	<g clip-path="url(#clip885_3045)">
		<path id="Vector" d="M13.5645 11.0471C15.25 13.4458 19.4512 13.8113 20.3418 13.9451C20.8164 14.0161 21.3867 14.3772 21.6348 14.7778C21.9062 15.1685 22.0449 15.6365 22.0273 16.1118C22.0332 16.6038 21.8438 17.0779 21.502 17.4316C21.3301 17.604 21.127 17.7429 20.9043 17.8418C20.6797 17.9321 20.4414 17.9834 20.1992 17.9934L5.69141 17.9934C5.20312 17.9827 4.74023 17.781 4.39844 17.4316C4.23047 17.2583 4.09766 17.053 4.00977 16.8281C3.91992 16.603 3.87695 16.3625 3.88086 16.1208C3.87305 16.0437 3.87305 15.9661 3.88086 15.8889C4.33789 11.8926 5.05859 7.93066 6.03906 4.02954C6.07031 3.90527 6.14062 3.79468 6.24023 3.71558C6.33984 3.63623 6.46484 3.59302 6.5918 3.59253L12.3789 3.59253C12.457 3.59131 12.5332 3.60596 12.6055 3.63574C12.6777 3.66577 12.7422 3.71021 12.7949 3.76636C12.8496 3.82251 12.8906 3.88916 12.918 3.96191C12.9434 4.03491 12.9551 4.11255 12.9492 4.18994C12.8691 5.7417 12.7266 9.87012 13.5645 11.0471Z" fill="#FFFFFF" fill-opacity="1.000000" fill-rule="nonzero"/>
		<path id="Vector" d="M13.5645 11.0471C12.7266 9.87012 12.8691 5.7417 12.9492 4.18994C12.9551 4.11255 12.9434 4.03491 12.918 3.96191C12.8906 3.88916 12.8496 3.82251 12.7949 3.76636C12.7422 3.71021 12.6777 3.66577 12.6055 3.63574C12.5332 3.60596 12.457 3.59131 12.3789 3.59253L6.5918 3.59253C6.46484 3.59302 6.33984 3.63623 6.24023 3.71558C6.14062 3.79468 6.07031 3.90527 6.03906 4.02954C5.05859 7.93066 4.33789 11.8926 3.88086 15.8889C3.87305 15.9661 3.87305 16.0437 3.88086 16.1208C3.87695 16.3625 3.91992 16.603 4.00977 16.8281C4.09766 17.053 4.23047 17.2583 4.39844 17.4316C4.74023 17.781 5.20312 17.9827 5.69141 17.9934L20.1992 17.9934C20.4414 17.9834 20.6797 17.9321 20.9043 17.8418C21.127 17.7429 21.3301 17.604 21.502 17.4316C21.8438 17.0779 22.0332 16.6038 22.0273 16.1118C22.0449 15.6365 21.9062 15.1685 21.6348 14.7778C21.3867 14.3772 20.8164 14.0161 20.3418 13.9451C19.4512 13.8113 15.25 13.4458 13.5645 11.0471Z" stroke="#363A45" stroke-opacity="1.000000" stroke-width="0.700000"/>
		<path id="Vector" d="M20.6016 17.9937L4.20312 17.9937L4.20312 19.9197L20.6016 19.9197L20.6016 17.9937Z" fill="#FFFFFF" fill-opacity="1.000000" fill-rule="nonzero"/>
		<path id="Vector" d="M4.20312 17.9937L4.20312 19.9197L20.6016 19.9197L20.6016 17.9937L4.20312 17.9937Z" stroke="#363A45" stroke-opacity="1.000000" stroke-width="0.700000"/>
		<path id="Vector" d="M4.20312 21.4084C4.53906 21.4084 4.86914 21.3086 5.14844 21.1213C5.42969 20.9343 5.64844 20.6682 5.77734 20.3572C5.90625 20.0459 5.93945 19.7034 5.87305 19.373C5.80859 19.0427 5.64648 18.7393 5.4082 18.501C5.16992 18.2629 4.86523 18.1006 4.53516 18.0349C4.20508 17.9692 3.86328 18.0029 3.55078 18.1318C3.24023 18.2607 2.97461 18.479 2.78711 18.759C2.59961 19.0393 2.5 19.3684 2.5 19.7053C2.5 20.157 2.67969 20.5903 2.99805 20.9097C3.31836 21.229 3.75195 21.4084 4.20312 21.4084Z" fill="#00C65E" fill-opacity="1.000000" fill-rule="nonzero"/>
		<path id="Vector" d="M20.7969 21.4084C21.1328 21.4084 21.4629 21.3086 21.7422 21.1213C22.0234 20.9343 22.2422 20.6682 22.3711 20.3572C22.5 20.0459 22.5332 19.7034 22.4668 19.373C22.4023 19.0427 22.2402 18.7393 22.002 18.501C21.7637 18.2629 21.459 18.1006 21.1289 18.0349C20.7988 17.9692 20.457 18.0029 20.1445 18.1318C19.834 18.2607 19.5684 18.479 19.3809 18.759C19.1934 19.0393 19.0938 19.3684 19.0938 19.7053C19.0938 20.157 19.2734 20.5903 19.5918 20.9097C19.9121 21.229 20.3457 21.4084 20.7969 21.4084Z" fill="#00C65E" fill-opacity="1.000000" fill-rule="nonzero"/>
		<path id="Vector" d="M15.2676 21.4084C15.6035 21.4048 15.9316 21.302 16.209 21.1128C16.4863 20.9233 16.7031 20.6562 16.8281 20.3447C16.9551 20.0332 16.9863 19.6914 16.918 19.3621C16.8496 19.033 16.6875 18.7312 16.4473 18.4949C16.209 18.2583 15.9062 18.0979 15.5762 18.0337C15.2461 17.9692 14.9043 18.0042 14.5938 18.1335C14.2832 18.2629 14.0195 18.4812 13.832 18.761C13.6465 19.0405 13.5469 19.3691 13.5469 19.7053C13.5469 19.9304 13.5918 20.1533 13.6777 20.3611C13.7656 20.5688 13.8926 20.7576 14.0527 20.9158C14.2129 21.0742 14.4023 21.1992 14.6113 21.2839C14.8184 21.3684 15.043 21.4106 15.2676 21.4084Z" fill="#00C65E" fill-opacity="1.000000" fill-rule="nonzero"/>
		<path id="Vector" d="M9.74023 21.4084C10.0762 21.4084 10.4062 21.3086 10.6855 21.1213C10.9668 20.9343 11.1855 20.6682 11.3145 20.3572C11.4434 20.0459 11.4766 19.7034 11.4102 19.373C11.3457 19.0427 11.1836 18.7393 10.9453 18.501C10.707 18.2629 10.4023 18.1006 10.0723 18.0349C9.74219 17.9692 9.40039 18.0029 9.08789 18.1318C8.77734 18.2607 8.51172 18.479 8.32422 18.759C8.13672 19.0393 8.03711 19.3684 8.03711 19.7053C8.03906 20.1562 8.21875 20.5881 8.53906 20.907C8.85742 21.2258 9.28906 21.406 9.74023 21.4084Z" fill="#00C65E" fill-opacity="1.000000" fill-rule="nonzero"/>
		<path id="Vector" d="M9.23242 10.5925L13.0117 10.5925C12.9414 10.3252 12.8438 10.022 12.7891 9.70093L9.22266 9.70093C9.10742 9.70093 9.01758 9.82568 9.01758 9.97729L9.01758 10.3162C9.02734 10.4678 9.08984 10.5925 9.23242 10.5925Z" fill="#00C65E" fill-opacity="1.000000" fill-rule="nonzero"/>
		<path id="Vector" d="M12.6562 8.26514L9.23242 8.26514C9.11719 8.26514 9.02734 8.14038 9.02734 7.98877L9.02734 7.6499C9.02734 7.49829 9.11719 7.37354 9.23242 7.37354L12.5938 7.37354L12.6562 8.26514Z" fill="#00C65E" fill-opacity="1.000000" fill-rule="nonzero"/>
	</g>
</svg>
