<svg width="25.000000" height="25.000000" viewBox="0 0 25 25" fill="none" xmlns="http://www.w3.org/2000/svg" xmlns:xlink="http://www.w3.org/1999/xlink">
	<desc>
			Created with Pixso.
	</desc>
	<defs>
		<clipPath id="clip18_20756">
			<rect id="icon tools/off" width="25.000000" height="25.000000" fill="white" fill-opacity="0"/>
		</clipPath>
	</defs>
	<g clip-path="url(#clip18_20756)">
		<path id="Rectangle 397" d="M3.50014 4.24121L13.6527 4.24121C13.9512 4.24121 14.246 4.30762 14.5154 4.43652L17.2749 5.75586L17.2749 9.35059L14.5154 10.6699C14.246 10.7988 13.9512 10.8652 13.6527 10.8652L3.50014 10.8652C2.94786 10.8652 2.50014 10.418 2.50014 9.86523L2.50014 5.24121C2.50014 4.68848 2.94786 4.24121 3.50014 4.24121Z" fill="#FFFFFF" fill-opacity="1.000000" fill-rule="nonzero"/>
		<path id="Rectangle 397" d="M3.50014 4.24121L13.6527 4.24121C13.9512 4.24121 14.246 4.30762 14.5154 4.43652L17.2749 5.75586L17.2749 9.35059L14.5154 10.6699C14.246 10.7988 13.9512 10.8652 13.6527 10.8652L3.50014 10.8652C2.94786 10.8652 2.50014 10.418 2.50014 9.86523L2.50014 5.24121C2.50014 4.68848 2.94786 4.24121 3.50014 4.24121ZM16.5749 8.90918L14.2134 10.0381Q14.0804 10.1025 13.9402 10.1338Q13.8001 10.166 13.6527 10.166L3.50014 10.166Q3.43801 10.166 3.38498 10.1436Q3.33195 10.1221 3.28801 10.0781Q3.24408 10.0342 3.22211 9.98047Q3.20014 9.92773 3.20014 9.86523L3.20014 5.24121Q3.20014 5.17871 3.22211 5.12598Q3.24408 5.07324 3.28801 5.0293Q3.33195 4.98535 3.38498 4.96289Q3.43801 4.94141 3.50014 4.94141L13.6527 4.94141Q13.8001 4.94141 13.9402 4.97266Q14.0804 5.00488 14.2134 5.06836L16.5749 6.19727L16.5749 8.90918Z" fill="#363A45" fill-opacity="1.000000" fill-rule="evenodd"/>
		<path id="Vector 58" d="M4.26991 6.15332L8.26244 6.15332" stroke="#00C65E" stroke-opacity="1.000000" stroke-width="0.700000" stroke-linecap="round"/>
		<path id="Vector 60" d="M4.26991 7.83008L8.26244 7.83008" stroke="#00C65E" stroke-opacity="1.000000" stroke-width="0.700000" stroke-linecap="round"/>
		<path id="Rectangle 398" d="M18.4784 5.68164L19.6641 5.68262C19.989 5.68262 20.2935 5.84082 20.4808 6.10645L21.0829 6.95996C21.3266 7.30566 21.3266 7.7666 21.0829 8.1123L20.4812 8.96582C20.2937 9.23145 19.9887 9.38965 19.6634 9.38965L18.4784 9.38867L18.4784 5.68164Z" fill="#FFFFFF" fill-opacity="1.000000" fill-rule="nonzero"/>
		<path id="Rectangle 398" d="M19.1784 6.38184L19.6637 6.38184L19.6641 6.38184Q19.7409 6.38184 19.8017 6.41309Q19.8635 6.44531 19.9087 6.50977L20.5108 7.36328Q20.5382 7.40234 20.5519 7.44531Q20.5656 7.48828 20.5656 7.53613Q20.5656 7.58398 20.5519 7.62695Q20.5382 7.66992 20.5108 7.70898L19.9091 8.5625Q19.8646 8.625 19.8038 8.65723Q19.7421 8.68945 19.6634 8.68945L19.1784 8.68945L19.1784 6.38184ZM18.4784 6.38184L18.4784 5.68164L19.6641 5.68262C19.989 5.68262 20.2935 5.84082 20.4808 6.10645L21.0829 6.95996C21.3266 7.30566 21.3266 7.7666 21.0829 8.1123L20.4812 8.96582C20.2937 9.23145 19.9887 9.38965 19.6634 9.38965L18.4784 9.38867L18.4784 6.38184Z" fill="#363A45" fill-opacity="1.000000" fill-rule="evenodd"/>
		<path id="Vector 59" d="M21.0593 7.10449L22.5 7.10449L22.5 7.80371L21.0593 7.80371L21.0593 7.10449ZM22.48 7.12402L22.5 7.10449C22.696 7.10449 22.85 7.25781 22.85 7.4541C22.85 7.65039 22.696 7.80371 22.5 7.80371L22.48 7.78418L22.48 7.12402Z" fill="#363A45" fill-opacity="1.000000" fill-rule="evenodd"/>
		<path id="Rectangle 399" d="M5.68565 10.1904L10.2477 10.1904L9.49026 16.5508L4.92818 16.5508L5.68565 10.1904Z" fill="#FFFFFF" fill-opacity="1.000000" fill-rule="nonzero"/>
		<path id="Rectangle 399" d="M9.54277 10.1904L5.68565 10.1904L4.92818 16.5508L9.49026 16.5508L10.1644 10.8906L10.2477 10.1904L9.54277 10.1904ZM9.45941 10.8906L8.86868 15.8506L5.71649 15.8506L6.30723 10.8906L9.45941 10.8906Z" fill="#363A45" fill-opacity="1.000000" fill-rule="evenodd"/>
		<rect id="Rectangle 400" x="3.977585" y="16.383789" rx="1.000000" width="6.471007" height="3.781833" fill="#FFFFFF" fill-opacity="1.000000"/>
		<rect id="Rectangle 400" x="3.977585" y="16.383789" rx="1.000000" width="6.471007" height="3.781833" stroke="#363A45" stroke-opacity="1.000000" stroke-width="0.700000"/>
		<rect id="Rectangle 401" x="17.275040" y="5.681641" width="2.000589" height="3.707997" fill="#00C65E" fill-opacity="1.000000"/>
	</g>
</svg>
