<svg width="25.000000" height="25.000000" viewBox="0 0 25 25" fill="none" xmlns="http://www.w3.org/2000/svg" xmlns:xlink="http://www.w3.org/1999/xlink">
	<desc>
			Created with Pixso.
	</desc>
	<defs/>
	<rect id="icon job/off" width="25.000000" height="25.000000" fill="#FFFFFF" fill-opacity="0"/>
	<path id="Vector" d="M15.3398 19.9797L12.9082 22.1296C12.793 22.231 12.6426 22.2869 12.4883 22.2869C12.334 22.2869 12.1855 22.231 12.0684 22.1296L9.66992 19.9998C9.58984 19.9331 9.5293 19.8479 9.49414 19.7517C9.45703 19.6555 9.44531 19.5518 9.45898 19.4497L10.9785 7.19971C11.0039 7.05127 11.082 6.91699 11.1973 6.82007C11.3125 6.7229 11.459 6.66992 11.6094 6.66968L13.3086 6.66968C13.4629 6.66846 13.6133 6.72363 13.7285 6.8252C13.8438 6.92651 13.9199 7.06689 13.9395 7.21973L15.5586 19.4497C15.5645 19.5488 15.5469 19.6482 15.5098 19.7397C15.4707 19.8315 15.4141 19.9136 15.3398 19.9797Z" fill="#FFFFFF" fill-opacity="1.000000" fill-rule="nonzero"/>
	<path id="Vector" d="M12.9082 22.1296C12.793 22.231 12.6426 22.2869 12.4883 22.2869C12.334 22.2869 12.1855 22.231 12.0684 22.1296L9.66992 19.9998C9.58984 19.9331 9.5293 19.8479 9.49414 19.7517C9.45703 19.6555 9.44531 19.5518 9.45898 19.4497L10.9785 7.19971C11.0039 7.05127 11.082 6.91699 11.1973 6.82007C11.3125 6.7229 11.459 6.66992 11.6094 6.66968L13.3086 6.66968C13.4629 6.66846 13.6133 6.72363 13.7285 6.8252C13.8438 6.92651 13.9199 7.06689 13.9395 7.21973L15.5586 19.4497C15.5645 19.5488 15.5469 19.6482 15.5098 19.7397C15.4707 19.8315 15.4141 19.9136 15.3398 19.9797L12.9082 22.1296Z" stroke="#363A45" stroke-opacity="1.000000" stroke-width="0.700000"/>
	<path id="Vector" d="M14.6016 14.6897L14.5117 14.0098L10.4707 14.0198L10.3809 14.6997L14.6016 14.6897Z" fill="#00C65E" fill-opacity="1.000000" fill-rule="nonzero"/>
	<path id="Vector" d="M14.8613 16.7598L14.7715 16.0798L10.2109 16.0898L10.1309 16.7798L14.8613 16.7598Z" fill="#00C65E" fill-opacity="1.000000" fill-rule="nonzero"/>
	<path id="Vector" d="M15.1094 18.7197L15.0098 18.0398L9.95898 18.0498L9.86914 18.7297L15.1094 18.7197Z" fill="#00C65E" fill-opacity="1.000000" fill-rule="nonzero"/>
	<path id="Vector" d="M11.2285 2.50977L13.7598 2.50977C13.8535 2.50928 13.9473 2.52979 14.0312 2.56982C14.1172 2.61011 14.1914 2.6687 14.252 2.74146C14.3105 2.81445 14.3535 2.89966 14.375 2.99121C14.3965 3.08252 14.3984 3.17773 14.3789 3.26978L14.0098 5.10986C13.9824 5.25439 13.9062 5.38525 13.793 5.47876C13.6797 5.57202 13.5371 5.62207 13.3887 5.61987L11.6699 5.61987C11.5215 5.62061 11.3789 5.57007 11.2637 5.47729C11.1484 5.38428 11.0684 5.25439 11.0391 5.10986L10.6094 3.26978C10.5898 3.17773 10.5918 3.08252 10.6133 2.99121C10.6348 2.89966 10.6777 2.81445 10.7383 2.74146C10.7969 2.6687 10.8711 2.61011 10.957 2.56982C11.043 2.52979 11.1348 2.50928 11.2285 2.50977Z" fill="#00C65E" fill-opacity="1.000000" fill-rule="nonzero"/>
	<path id="Vector" d="M13.7598 2.50977C13.8535 2.50928 13.9473 2.52979 14.0312 2.56982C14.1172 2.61011 14.1914 2.6687 14.252 2.74146C14.3105 2.81445 14.3535 2.89966 14.375 2.99121C14.3965 3.08252 14.3984 3.17773 14.3789 3.26978L14.0098 5.10986C13.9824 5.25439 13.9062 5.38525 13.793 5.47876C13.6797 5.57202 13.5371 5.62207 13.3887 5.61987L11.6699 5.61987C11.5215 5.62061 11.3789 5.57007 11.2637 5.47729C11.1484 5.38428 11.0684 5.25439 11.0391 5.10986L10.6094 3.26978C10.5898 3.17773 10.5918 3.08252 10.6133 2.99121C10.6348 2.89966 10.6777 2.81445 10.7383 2.74146C10.7969 2.6687 10.8711 2.61011 10.957 2.56982C11.043 2.52979 11.1348 2.50928 11.2285 2.50977L13.7598 2.50977Z" stroke="#363A45" stroke-opacity="1.000000" stroke-width="0.700000"/>
</svg>
