<svg width="25.000000" height="25.000000" viewBox="0 0 25 25" fill="none" xmlns="http://www.w3.org/2000/svg" xmlns:xlink="http://www.w3.org/1999/xlink">
	<desc>
			Created with Pixso.
	</desc>
	<defs>
		<clipPath id="clip18_20844">
			<rect id="icon mono/off" width="25.000000" height="25.000000" fill="white" fill-opacity="0"/>
		</clipPath>
	</defs>
	<g clip-path="url(#clip18_20844)">
		<path id="Rectangle 392" d="M10.2148 17.5938L14.7855 17.5938L15.7855 21.5586L9.21484 21.5586L10.2148 17.5938Z" fill="#FFFFFF" fill-opacity="1.000000" fill-rule="nonzero"/>
		<path id="Rectangle 392" d="M14.2401 18.2939L14.887 20.8584L10.1133 20.8584L10.7602 18.2939L14.2401 18.2939ZM14.7855 17.5938L10.2148 17.5938L9.3914 20.8584L9.21484 21.5586L15.7855 21.5586L15.6089 20.8584L14.7855 17.5938Z" fill="#363A45" fill-opacity="1.000000" fill-rule="evenodd"/>
		<path id="Vector" d="M21.1397 2.53516L3.8497 2.53516C3.47023 2.56543 3.11805 2.74414 2.86921 3.03223C2.62037 3.32129 2.49483 3.69531 2.5197 4.0752L2.5197 16.415C2.49483 16.7949 2.62037 17.1699 2.86921 17.458C3.11805 17.7461 3.47023 17.9248 3.8497 17.9551L21.1397 17.9551C21.521 17.9268 21.8757 17.749 22.1266 17.4609C22.3776 17.1729 22.5045 16.7969 22.4797 16.415L22.4797 4.0752C22.5045 3.69336 22.3776 3.31738 22.1266 3.0293C21.8757 2.74121 21.521 2.56348 21.1397 2.53516Z" fill="#FFFFFF" fill-opacity="1.000000" fill-rule="nonzero"/>
		<path id="Vector" d="M3.8497 2.53516C3.47023 2.56543 3.11805 2.74414 2.86921 3.03223C2.62037 3.32129 2.49483 3.69531 2.5197 4.0752L2.5197 16.415C2.49483 16.7949 2.62037 17.1699 2.86921 17.458C3.11805 17.7461 3.47023 17.9248 3.8497 17.9551L21.1397 17.9551C21.521 17.9268 21.8757 17.749 22.1266 17.4609C22.3776 17.1729 22.5045 16.7969 22.4797 16.415L22.4797 4.0752C22.5045 3.69336 22.3776 3.31738 22.1266 3.0293C21.8757 2.74121 21.521 2.56348 21.1397 2.53516L3.8497 2.53516Z" stroke="#363A45" stroke-opacity="1.000000" stroke-width="0.700000"/>
		<path id="Vector 57" d="M2.48145 14.6465L22.542 14.6465" stroke="#363A45" stroke-opacity="1.000000" stroke-width="0.700000"/>
		<path id="Vector" d="M18.0455 21.2148L6.93555 21.2148C6.59037 21.2148 6.31055 21.4951 6.31055 21.8398C6.31055 22.1846 6.59037 22.4648 6.93555 22.4648L18.0455 22.4648C18.3907 22.4648 18.6705 22.1846 18.6705 21.8398C18.6705 21.4951 18.3907 21.2148 18.0455 21.2148Z" fill="#FFFFFF" fill-opacity="1.000000" fill-rule="evenodd"/>
		<path id="Vector" d="M6.93555 21.2148C6.59037 21.2148 6.31055 21.4951 6.31055 21.8398C6.31055 22.1846 6.59037 22.4648 6.93555 22.4648L18.0455 22.4648C18.3907 22.4648 18.6705 22.1846 18.6705 21.8398C18.6705 21.4951 18.3907 21.2148 18.0455 21.2148L6.93555 21.2148Z" stroke="#363A45" stroke-opacity="1.000000" stroke-width="0.700000"/>
		<path id="Vector" d="M12.5 17.293C12.6978 17.293 12.8911 17.2344 13.0556 17.124C13.22 17.0146 13.3482 16.8584 13.4239 16.6758C13.4996 16.4932 13.5194 16.292 13.4808 16.0977C13.4422 15.9043 13.347 15.7256 13.2071 15.5859C13.0673 15.4463 12.8891 15.3506 12.6951 15.3125C12.5011 15.2734 12.3 15.293 12.1173 15.3691C11.9346 15.4443 11.7784 15.5732 11.6685 15.7373C11.5586 15.9014 11.5 16.0947 11.5 16.293C11.5 16.5586 11.6054 16.8125 11.7929 17C11.9804 17.1875 12.2348 17.293 12.5 17.293Z" fill="#00C65E" fill-opacity="1.000000" fill-rule="nonzero"/>
	</g>
</svg>
