<svg width="25.000000" height="25.000000" viewBox="0 0 25 25" fill="none" xmlns="http://www.w3.org/2000/svg" xmlns:xlink="http://www.w3.org/1999/xlink">
	<desc>
			Created with Pixso.
	</desc>
	<defs>
		<clipPath id="clip18_20830">
			<rect id="icon screen/off" width="25.000000" height="25.000000" fill="white" fill-opacity="0"/>
		</clipPath>
	</defs>
	<g clip-path="url(#clip18_20830)">
		<path id="Vector" d="M15.1986 21.2109C14.9561 21.1934 14.7525 21.0615 14.5911 20.8779C14.5089 20.7871 14.4461 20.6797 14.4065 20.5635C14.367 20.4473 14.3515 20.3242 14.3611 20.2012L14.3611 18.9287C14.3515 18.8066 14.367 18.6826 14.4065 18.5664C14.4461 18.4502 14.5089 18.3438 14.5911 18.2529C14.7525 18.0693 14.9786 17.957 15.2211 17.9395L9.75716 17.9395C10.0026 17.9619 10.2331 18.082 10.3911 18.2725C10.474 18.3652 10.5372 18.4736 10.5768 18.5918C10.6164 18.71 10.6314 18.835 10.6211 18.959L10.6211 20.2217C10.6054 20.459 10.5142 20.6855 10.3611 20.8672C10.2077 21.0498 9.99505 21.1719 9.76106 21.2109L15.1986 21.2109Z" fill="#FFFFFF" fill-opacity="1.000000" fill-rule="nonzero"/>
		<path id="Vector" d="M14.5911 20.8779C14.5089 20.7871 14.4461 20.6797 14.4065 20.5635C14.367 20.4473 14.3515 20.3242 14.3611 20.2012L14.3611 18.9287C14.3515 18.8066 14.367 18.6826 14.4065 18.5664C14.4461 18.4502 14.5089 18.3438 14.5911 18.2529C14.7525 18.0693 14.9786 17.957 15.2211 17.9395L9.75716 17.9395C10.0026 17.9619 10.2331 18.082 10.3911 18.2725C10.474 18.3652 10.5372 18.4736 10.5768 18.5918C10.6164 18.71 10.6314 18.835 10.6211 18.959L10.6211 20.2217C10.6054 20.459 10.5142 20.6855 10.3611 20.8672C10.2077 21.0498 9.99505 21.1719 9.76106 21.2109L15.1986 21.2109C14.9561 21.1934 14.7525 21.0615 14.5911 20.8779Z" stroke="#363A45" stroke-opacity="1.000000" stroke-width="0.700000"/>
		<path id="Vector" d="M21.14 2.53516L3.85002 2.53516C3.47055 2.56543 3.11837 2.74414 2.86953 3.03223C2.62069 3.32129 2.49516 3.69531 2.52002 4.0752L2.52002 16.415C2.49516 16.7949 2.62069 17.1699 2.86953 17.458C3.11837 17.7461 3.47055 17.9248 3.85002 17.9551L21.14 17.9551C21.5213 17.9268 21.876 17.749 22.1269 17.4609C22.3779 17.1729 22.5048 16.7969 22.48 16.415L22.48 4.0752C22.5048 3.69336 22.3779 3.31738 22.1269 3.0293C21.876 2.74121 21.5213 2.56348 21.14 2.53516Z" fill="#FFFFFF" fill-opacity="1.000000" fill-rule="nonzero"/>
		<path id="Vector" d="M3.85002 2.53516C3.47055 2.56543 3.11837 2.74414 2.86953 3.03223C2.62069 3.32129 2.49516 3.69531 2.52002 4.0752L2.52002 16.415C2.49516 16.7949 2.62069 17.1699 2.86953 17.458C3.11837 17.7461 3.47055 17.9248 3.85002 17.9551L21.14 17.9551C21.5213 17.9268 21.876 17.749 22.1269 17.4609C22.3779 17.1729 22.5048 16.7969 22.48 16.415L22.48 4.0752C22.5048 3.69336 22.3779 3.31738 22.1269 3.0293C21.876 2.74121 21.5213 2.56348 21.14 2.53516L3.85002 2.53516Z" stroke="#363A45" stroke-opacity="1.000000" stroke-width="0.700000"/>
		<path id="Vector" d="M18.0459 21.2148L6.93587 21.2148C6.59069 21.2148 6.31087 21.4951 6.31087 21.8398C6.31087 22.1846 6.59069 22.4648 6.93587 22.4648L18.0459 22.4648C18.391 22.4648 18.6709 22.1846 18.6709 21.8398C18.6709 21.4951 18.391 21.2148 18.0459 21.2148Z" fill="#F7F7F7" fill-opacity="1.000000" fill-rule="evenodd"/>
		<path id="Vector" d="M6.93587 21.2148C6.59069 21.2148 6.31087 21.4951 6.31087 21.8398C6.31087 22.1846 6.59069 22.4648 6.93587 22.4648L18.0459 22.4648C18.391 22.4648 18.6709 22.1846 18.6709 21.8398C18.6709 21.4951 18.391 21.2148 18.0459 21.2148L6.93587 21.2148Z" stroke="#363A45" stroke-opacity="1.000000" stroke-width="0.700000"/>
		<path id="Vector" d="M20.518 16.8662C20.8543 16.8418 21.1671 16.6846 21.3884 16.4307C21.6097 16.1758 21.7216 15.8447 21.6998 15.5078L21.6998 4.62598C21.7216 4.28906 21.6097 3.95801 21.3884 3.70312C21.1671 3.44922 20.8543 3.29199 20.518 3.26758C18.8047 12.5078 16.4062 15.5078 13.5352 16.8662L20.518 16.8662Z" fill="#00C65E" fill-opacity="1.000000" fill-rule="evenodd"/>
		<path id="Vector" d="M12.5003 16.6348C12.6981 16.6348 12.8914 16.5762 13.0559 16.4658C13.2203 16.3564 13.3485 16.2002 13.4242 16.0176C13.4999 15.835 13.5197 15.6338 13.4811 15.4395C13.4425 15.2461 13.3473 15.0674 13.2074 14.9277C13.0676 14.7881 12.8894 14.6924 12.6954 14.6543C12.5014 14.6152 12.3004 14.6348 12.1176 14.7109C11.9349 14.7861 11.7787 14.915 11.6689 15.0791C11.559 15.2432 11.5003 15.4365 11.5003 15.6348C11.5003 15.9004 11.6057 16.1543 11.7932 16.3418C11.9808 16.5293 12.2351 16.6348 12.5003 16.6348Z" fill="#00C65E" fill-opacity="1.000000" fill-rule="nonzero"/>
	</g>
</svg>
