<svg width="25.000000" height="25.000000" viewBox="0 0 25 25" fill="none" xmlns="http://www.w3.org/2000/svg" xmlns:xlink="http://www.w3.org/1999/xlink">
	<desc>
			Created with Pixso.
	</desc>
	<defs>
		<clipPath id="clip18_20860">
			<rect id="icon laptop/off" width="25.000000" height="25.000000" fill="white" fill-opacity="0"/>
		</clipPath>
	</defs>
	<g clip-path="url(#clip18_20860)">
		<path id="Vector" d="M5.2093 5.91992L19.7916 5.91992C20.5743 5.91992 21.2088 6.55469 21.2088 7.33691L21.2088 17.168C21.2088 17.9502 20.5743 18.585 19.7916 18.585L5.2093 18.585C4.42662 18.585 3.79212 17.9502 3.79212 17.168L3.79212 7.33691C3.79212 6.55469 4.42662 5.91992 5.2093 5.91992Z" fill="#FFFFFF" fill-opacity="1.000000" fill-rule="evenodd"/>
		<path id="Vector" d="M19.7916 5.91992L5.2093 5.91992C4.42662 5.91992 3.79212 6.55469 3.79212 7.33691L3.79212 17.168C3.79212 17.9502 4.42662 18.585 5.2093 18.585L19.7916 18.585C20.5743 18.585 21.2088 17.9502 21.2088 17.168L21.2088 7.33691C21.2088 6.55469 20.5743 5.91992 19.7916 5.91992ZM5.2093 6.62012L19.7916 6.62012Q19.9402 6.62012 20.067 6.67285Q20.1937 6.72461 20.2988 6.83008Q20.4038 6.93457 20.4563 7.06152Q20.5088 7.18848 20.5088 7.33691L20.5088 17.168Q20.5088 17.3164 20.4563 17.4434Q20.4038 17.5693 20.2988 17.6748Q20.1937 17.7793 20.0669 17.832Q19.9402 17.8848 19.7916 17.8848L5.2093 17.8848Q5.06078 17.8848 4.93399 17.832Q4.80721 17.7793 4.70218 17.6748Q4.59715 17.5693 4.54464 17.4434Q4.49212 17.3164 4.49212 17.168L4.49212 7.33691Q4.49212 7.18848 4.54464 7.06152Q4.59715 6.93457 4.70218 6.83008Q4.80721 6.72461 4.93399 6.67285Q5.06078 6.62012 5.2093 6.62012Z" fill="#363A45" fill-opacity="1.000000" fill-rule="evenodd"/>
		<path id="Vector" d="M2.57771 17.9121L22.4224 17.9121C22.443 17.9121 22.4627 17.9199 22.4773 17.9346C22.4918 17.9492 22.5 17.9688 22.5 17.9893L22.5 18.6387C22.5 18.7559 22.4535 18.8682 22.3708 18.9512C22.2881 19.0342 22.1759 19.0801 22.0589 19.0801L2.94119 19.0801C2.82421 19.0801 2.71202 19.0342 2.6293 18.9512C2.54658 18.8682 2.50011 18.7559 2.50011 18.6387L2.50011 17.9941C2.49955 17.9834 2.50115 17.9727 2.5048 17.9629C2.50845 17.9531 2.51408 17.9443 2.52134 17.9365C2.5286 17.9287 2.53735 17.9229 2.54704 17.918C2.55672 17.9141 2.56716 17.9121 2.57771 17.9121Z" fill="#363A45" fill-opacity="1.000000" fill-rule="nonzero"/>
		<path id="Vector" d="M16.3231 7.4082L6.15901 7.4082C6.04245 7.41699 5.92883 7.44922 5.82504 7.50293C5.72126 7.55664 5.62949 7.63086 5.55531 7.7207C5.48112 7.81152 5.42608 7.91602 5.39352 8.02734C5.36095 8.13965 5.35155 8.25781 5.36588 8.37402L5.36588 16.1328C5.35155 16.249 5.36095 16.3662 5.39352 16.4785C5.42608 16.5908 5.48112 16.6953 5.55531 16.7852C5.62949 16.876 5.72126 16.9502 5.82504 17.0039C5.92883 17.0576 6.04245 17.0898 6.15901 17.0986C9.52119 17.0635 16.3231 11.1406 16.3231 7.4082Z" fill="#00C65E" fill-opacity="1.000000" fill-rule="nonzero"/>
	</g>
</svg>
