<svg width="25.000000" height="25.000000" viewBox="0 0 25 25" fill="none" xmlns="http://www.w3.org/2000/svg" xmlns:xlink="http://www.w3.org/1999/xlink">
	<desc>
			Created with Pixso.
	</desc>
	<defs>
		<clipPath id="clip18_20767">
			<rect id="icon phone /off" width="25.000000" height="25.000000" fill="white" fill-opacity="0"/>
		</clipPath>
	</defs>
	<g clip-path="url(#clip18_20767)">
		<path id="Vector" d="M16.7439 2.50098L8.27074 2.50098C8.14552 2.50098 8.02156 2.52637 7.90668 2.57617C7.7918 2.62598 7.68848 2.69922 7.60321 2.79102C7.51794 2.88281 7.45258 2.99121 7.41122 3.10938C7.36987 3.22754 7.35342 3.35254 7.36291 3.47754L7.36291 21.5928C7.36291 21.834 7.45856 22.0645 7.62881 22.2354C7.79906 22.4053 8.02998 22.501 8.27074 22.501L16.7439 22.501C16.9823 22.4971 17.2097 22.4004 17.377 22.2305C17.5443 22.0605 17.638 21.832 17.638 21.5928L17.638 3.47754C17.6474 3.35352 17.6314 3.22949 17.5908 3.1123C17.5503 2.99512 17.4862 2.8877 17.4024 2.7959C17.3186 2.7041 17.2169 2.63086 17.1037 2.58008C16.9904 2.5293 16.868 2.50293 16.7439 2.50098Z" fill="#FFFFFF" fill-opacity="1.000000" fill-rule="nonzero"/>
		<path id="Vector" d="M8.27074 2.50098C8.14552 2.50098 8.02156 2.52637 7.90668 2.57617C7.7918 2.62598 7.68848 2.69922 7.60321 2.79102C7.51794 2.88281 7.45258 2.99121 7.41122 3.10938C7.36987 3.22754 7.35342 3.35254 7.36291 3.47754L7.36291 21.5928C7.36291 21.834 7.45856 22.0645 7.62881 22.2354C7.79906 22.4053 8.02998 22.501 8.27074 22.501L16.7439 22.501C16.9823 22.4971 17.2097 22.4004 17.377 22.2305C17.5443 22.0605 17.638 21.832 17.638 21.5928L17.638 3.47754C17.6474 3.35352 17.6314 3.22949 17.5908 3.1123C17.5503 2.99512 17.4862 2.8877 17.4024 2.7959C17.3186 2.7041 17.2169 2.63086 17.1037 2.58008C16.9904 2.5293 16.868 2.50293 16.7439 2.50098L8.27074 2.50098Z" stroke="#363A45" stroke-opacity="1.000000" stroke-width="0.700000"/>
		<path id="Vector" d="M10.379 21.4521L15.7595 21.4521C15.9729 21.4482 16.1764 21.3613 16.3262 21.209C16.4759 21.0576 16.5598 20.8525 16.5598 20.6387L16.5598 4.42383C16.5682 4.31348 16.5539 4.20215 16.5176 4.09668C16.4813 3.99219 16.4239 3.89551 16.3489 3.81348C16.2739 3.73145 16.1829 3.66602 16.0816 3.62109C15.9802 3.5752 15.8706 3.55078 15.7595 3.5498C15.2772 12.0322 13.006 18.6279 10.379 21.4521Z" fill="#00C65E" fill-opacity="1.000000" fill-rule="evenodd"/>
		<path id="Rectangle 374 (Stroke)" d="M9.79959 4.03027L9.79959 2.50098L15.2005 2.50098L15.2005 4.03027C15.2005 4.41016 14.8926 4.71777 14.5128 4.71777L10.4874 4.71777C10.1075 4.71777 9.79959 4.41016 9.79959 4.03027Z" fill="#363A45" fill-opacity="1.000000" fill-rule="evenodd"/>
	</g>
</svg>
