<svg width="25.000000" height="25.000000" viewBox="0 0 25 25" fill="none" xmlns="http://www.w3.org/2000/svg" xmlns:xlink="http://www.w3.org/1999/xlink">
	<desc>
			Created with Pixso.
	</desc>
	<defs>
		<clipPath id="clip18_20779">
			<rect id="icon printers/off" width="25.000000" height="25.000000" fill="white" fill-opacity="0"/>
		</clipPath>
	</defs>
	<g clip-path="url(#clip18_20779)">
		<rect id="Rectangle 393" x="4.011131" y="8.619141" rx="1.000000" width="16.977724" height="9.203180" fill="#FFFFFF" fill-opacity="1.000000"/>
		<rect id="Rectangle 393" x="4.011131" y="8.619141" rx="1.000000" width="16.977724" height="9.203180" stroke="#363A45" stroke-opacity="1.000000" stroke-width="0.700000"/>
		<path id="Rectangle 395" d="M6.63142 13.9941L18.3682 13.9941L18.3682 21.4043C18.3682 21.9561 17.9204 22.4043 17.3682 22.4043L7.63142 22.4043C7.07914 22.4043 6.63142 21.9561 6.63142 21.4043L6.63142 13.9941Z" fill="#00C65E" fill-opacity="1.000000" fill-rule="evenodd"/>
		<path id="Rectangle 394" d="M7.63142 5.01758L17.3682 5.01758C17.9204 5.01758 18.3682 5.46484 18.3682 6.01758L18.3682 8.93652L6.63142 8.93652L6.63142 6.01758C6.63142 5.46484 7.07914 5.01758 7.63142 5.01758Z" fill="#FFFFFF" fill-opacity="1.000000" fill-rule="evenodd"/>
		<path id="Rectangle 394" d="M17.3682 5.01758C17.9204 5.01758 18.3682 5.46484 18.3682 6.01758L18.3682 8.93652L6.63142 8.93652L6.63142 6.01758C6.63142 5.46484 7.07914 5.01758 7.63142 5.01758L17.3682 5.01758ZM17.3682 5.71777C17.5339 5.71777 17.6682 5.85156 17.6682 6.01758L17.6682 8.23633L7.33142 8.23633L7.33142 6.01758C7.33142 5.85156 7.46574 5.71777 7.63142 5.71777L17.3682 5.71777Z" fill="#363A45" fill-opacity="1.000000" fill-rule="evenodd"/>
		<circle id="Ellipse 88" cx="17.572380" cy="11.047852" r="0.835166" fill="#00C65E" fill-opacity="1.000000"/>
		<path id="Vector 58" d="M6.25492 13.8633L18.7443 13.8633" stroke="#363A45" stroke-opacity="1.000000" stroke-width="0.700000" stroke-linecap="round"/>
	</g>
</svg>
