<svg width="25.000000" height="25.000000" viewBox="0 0 25 25" fill="none" xmlns="http://www.w3.org/2000/svg" xmlns:xlink="http://www.w3.org/1999/xlink">
	<desc>
			Created with Pixso.
	</desc>
	<defs>
		<clipPath id="clip18_20740">
			<rect id="icon equipment/off" width="25.000000" height="25.000000" fill="white" fill-opacity="0"/>
		</clipPath>
	</defs>
	<g clip-path="url(#clip18_20740)">
		<rect id="Rectangle 393" x="3.411850" y="6.860352" rx="1.000000" width="18.175650" height="11.276966" fill="#FFFFFF" fill-opacity="1.000000"/>
		<rect id="Rectangle 393" x="3.411850" y="6.860352" rx="1.000000" width="18.175650" height="11.276966" stroke="#363A45" stroke-opacity="1.000000" stroke-width="0.700000"/>
		<path id="Vector" d="M8.17033 9.55957C6.26848 9.55957 4.72494 11.1035 4.72494 13.0049C4.72494 14.9072 6.26848 16.4502 8.17033 16.4502C10.0722 16.4502 11.6157 14.9072 11.6157 13.0049C11.6157 11.1035 10.0722 9.55957 8.17033 9.55957Z" fill="#FFFFFF" fill-opacity="1.000000" fill-rule="evenodd"/>
		<path id="Vector" d="M4.72494 13.0049C4.72494 11.1035 6.26848 9.55957 8.17033 9.55957C10.0722 9.55957 11.6157 11.1035 11.6157 13.0049C11.6157 14.9072 10.0722 16.4502 8.17033 16.4502C6.26848 16.4502 4.72494 14.9072 4.72494 13.0049ZM5.49315 13.6182Q5.42493 13.3193 5.42493 13.0049Q5.42493 12.6904 5.49315 12.3926Q5.5462 12.1602 5.64048 11.9375Q5.73615 11.7109 5.86806 11.5088Q6.02356 11.2695 6.22942 11.0645Q6.43526 10.8584 6.67393 10.7031Q6.87639 10.5703 7.10246 10.4756Q7.32526 10.3809 7.55746 10.3281Q7.85611 10.2598 8.17033 10.2598Q8.48456 10.2598 8.7832 10.3281Q9.01542 10.3809 9.23821 10.4756Q9.46429 10.5703 9.66676 10.7031Q9.90541 10.8584 10.1113 11.0645Q10.3171 11.2695 10.4726 11.5088Q10.6045 11.7109 10.7002 11.9375Q10.7945 12.1602 10.8475 12.3926Q10.9157 12.6904 10.9157 13.0049Q10.9157 13.3193 10.8475 13.6182Q10.7945 13.8496 10.7002 14.0732Q10.6045 14.2988 10.4726 14.501Q10.3171 14.7402 10.1113 14.9463Q9.90541 15.1514 9.66675 15.3076Q9.46429 15.4395 9.23821 15.5352Q9.01541 15.6289 8.78318 15.6826Q8.48455 15.75 8.17033 15.75Q7.85612 15.75 7.55748 15.6826Q7.32526 15.6289 7.10246 15.5352Q6.8764 15.4395 6.67394 15.3076Q6.43527 15.1514 6.22942 14.9463Q6.02356 14.7402 5.86806 14.501Q5.73615 14.2988 5.64048 14.0732Q5.5462 13.8496 5.49315 13.6182Z" fill="#363A45" fill-opacity="1.000000" fill-rule="evenodd"/>
		<path id="Vector" d="M16.8295 9.55957C14.9277 9.55957 13.3841 11.1035 13.3841 13.0049C13.3841 14.9072 14.9277 16.4502 16.8295 16.4502C18.7314 16.4502 20.2749 14.9072 20.2749 13.0049C20.2749 11.1035 18.7314 9.55957 16.8295 9.55957Z" fill="#FFFFFF" fill-opacity="1.000000" fill-rule="evenodd"/>
		<path id="Vector" d="M13.3841 13.0049C13.3841 11.1035 14.9277 9.55957 16.8295 9.55957C18.7314 9.55957 20.2749 11.1035 20.2749 13.0049C20.2749 14.9072 18.7314 16.4502 16.8295 16.4502C14.9277 16.4502 13.3841 14.9072 13.3841 13.0049ZM14.1523 13.6182Q14.0841 13.3193 14.0841 13.0049Q14.0841 12.6904 14.1523 12.3926Q14.2054 12.1602 14.2997 11.9375Q14.3953 11.7109 14.5272 11.5088Q14.6827 11.2695 14.8886 11.0645Q15.0944 10.8584 15.3331 10.7031Q15.5356 10.5703 15.7616 10.4756Q15.9844 10.3809 16.2166 10.3281Q16.5153 10.2598 16.8295 10.2598Q17.1437 10.2598 17.4424 10.3281Q17.6746 10.3809 17.8974 10.4756Q18.1235 10.5703 18.3259 10.7031Q18.5646 10.8584 18.7704 11.0645Q18.9763 11.2695 19.1318 11.5088Q19.2637 11.7109 19.3594 11.9375Q19.4537 12.1602 19.5067 12.3926Q19.5749 12.6904 19.5749 13.0049Q19.5749 13.3193 19.5067 13.6182Q19.4537 13.8496 19.3594 14.0732Q19.2637 14.2988 19.1318 14.501Q18.9763 14.7402 18.7704 14.9463Q18.5646 15.1514 18.3259 15.3076Q18.1235 15.4395 17.8974 15.5352Q17.6746 15.6289 17.4424 15.6826Q17.1437 15.75 16.8295 15.75Q16.5153 15.75 16.2167 15.6826Q15.9844 15.6289 15.7616 15.5352Q15.5356 15.4395 15.3331 15.3076Q15.0945 15.1514 14.8886 14.9463Q14.6827 14.7402 14.5272 14.501Q14.3953 14.2988 14.2997 14.0732Q14.2054 13.8496 14.1523 13.6182Z" fill="#363A45" fill-opacity="1.000000" fill-rule="evenodd"/>
		<path id="Vector" d="M8.16994 11.001C7.06396 11.001 6.16634 11.8984 6.16634 13.0049C6.16634 14.1104 7.06396 15.0078 8.16994 15.0078C9.27594 15.0078 10.1736 14.1104 10.1736 13.0049C10.1736 11.8984 9.27594 11.001 8.16994 11.001Z" fill="#00C65E" fill-opacity="1.000000" fill-rule="evenodd"/>
		<path id="Vector" d="M6.16634 13.0049C6.16634 11.8984 7.06396 11.001 8.16994 11.001C9.27594 11.001 10.1736 11.8984 10.1736 13.0049C10.1736 14.1104 9.27594 15.0078 8.16994 15.0078C7.06396 15.0078 6.16634 14.1104 6.16634 13.0049ZM6.68378 13.3467Q6.64552 13.1797 6.64552 13.0049Q6.64552 12.8291 6.68378 12.6621Q6.71318 12.5342 6.76517 12.4121Q6.81806 12.2871 6.89093 12.1748Q6.97749 12.042 7.09223 11.9268Q7.20697 11.8125 7.34004 11.7256Q7.45205 11.6523 7.57705 11.5996Q7.69988 11.5479 7.8279 11.5186Q7.99453 11.4805 8.16994 11.4805Q8.34537 11.4805 8.512 11.5186Q8.64001 11.5479 8.76285 11.5996Q8.88785 11.6523 8.99986 11.7256Q9.13293 11.8125 9.24767 11.9268Q9.36241 12.042 9.44897 12.1748Q9.52184 12.2871 9.57473 12.4121Q9.62671 12.5342 9.65611 12.6621Q9.69437 12.8291 9.69437 13.0049Q9.69437 13.1797 9.65611 13.3467Q9.62671 13.4746 9.57473 13.5977Q9.52183 13.7227 9.44897 13.835Q9.3624 13.9678 9.24767 14.082Q9.13293 14.1973 8.99985 14.2832Q8.88784 14.3564 8.76285 14.4092Q8.64001 14.4609 8.512 14.4912Q8.34537 14.5293 8.16994 14.5293Q7.99453 14.5293 7.8279 14.4912Q7.69987 14.4609 7.57705 14.4092Q7.45206 14.3564 7.34005 14.2832Q7.20698 14.1973 7.09223 14.082Q6.97749 13.9678 6.89092 13.835Q6.81806 13.7227 6.76517 13.5977Q6.71318 13.4746 6.68378 13.3467Z" fill="#00C65E" fill-opacity="1.000000" fill-rule="evenodd"/>
		<path id="Vector" d="M16.8291 11.001C15.7231 11.001 14.8255 11.8984 14.8255 13.0049C14.8255 14.1104 15.7231 15.0078 16.8291 15.0078C17.9351 15.0078 18.8327 14.1104 18.8327 13.0049C18.8327 11.8984 17.9351 11.001 16.8291 11.001Z" fill="#00C65E" fill-opacity="1.000000" fill-rule="evenodd"/>
		<path id="Vector" d="M14.8255 13.0049C14.8255 11.8984 15.7231 11.001 16.8291 11.001C17.9351 11.001 18.8327 11.8984 18.8327 13.0049C18.8327 14.1104 17.9351 15.0078 16.8291 15.0078C15.7231 15.0078 14.8255 14.1104 14.8255 13.0049ZM15.343 13.3467Q15.3047 13.1797 15.3047 13.0049Q15.3047 12.8291 15.343 12.6621Q15.3724 12.5342 15.4243 12.4121Q15.4772 12.2871 15.5501 12.1748Q15.6367 12.042 15.7514 11.9268Q15.8661 11.8125 15.9992 11.7256Q16.1112 11.6523 16.2362 11.5996Q16.3591 11.5479 16.4871 11.5186Q16.6537 11.4805 16.8291 11.4805Q17.0045 11.4805 17.1712 11.5186Q17.2992 11.5479 17.422 11.5996Q17.547 11.6523 17.659 11.7256Q17.7921 11.8125 17.9068 11.9268Q18.0216 12.042 18.1082 12.1748Q18.181 12.2871 18.2339 12.4121Q18.2859 12.5342 18.3153 12.6621Q18.3536 12.8291 18.3536 13.0049Q18.3536 13.1797 18.3153 13.3467Q18.2859 13.4746 18.2339 13.5977Q18.181 13.7227 18.1081 13.835Q18.0216 13.9678 17.9068 14.082Q17.7921 14.1973 17.659 14.2832Q17.547 14.3564 17.422 14.4092Q17.2992 14.4609 17.1712 14.4912Q17.0045 14.5293 16.8291 14.5293Q16.6537 14.5293 16.4871 14.4912Q16.3591 14.4609 16.2362 14.4092Q16.1112 14.3564 15.9992 14.2832Q15.8662 14.1973 15.7514 14.082Q15.6367 13.9678 15.5501 13.835Q15.4772 13.7227 15.4243 13.5977Q15.3724 13.4746 15.343 13.3467Z" fill="#00C65E" fill-opacity="1.000000" fill-rule="evenodd"/>
		<path id="Vector" d="M19.8024 7.90723C19.4777 7.90723 19.2142 8.1709 19.2142 8.49512C19.2142 8.82031 19.4777 9.08398 19.8024 9.08398C20.1272 9.08398 20.3907 8.82031 20.3907 8.49512C20.3907 8.1709 20.1272 7.90723 19.8024 7.90723Z" fill="#00C65E" fill-opacity="1.000000" fill-rule="evenodd"/>
		<path id="Vector" d="M19.2142 8.49512C19.2142 8.1709 19.4777 7.90723 19.8024 7.90723C20.1272 7.90723 20.3907 8.1709 20.3907 8.49512C20.3907 8.82031 20.1272 9.08398 19.8024 9.08398C19.4777 9.08398 19.2142 8.82031 19.2142 8.49512ZM19.7011 8.53711Q19.6934 8.51758 19.6934 8.49512Q19.6934 8.47363 19.7011 8.4541Q19.7091 8.43457 19.7254 8.41797Q19.7416 8.40234 19.7613 8.39453Q19.7803 8.38672 19.8024 8.38672Q19.8246 8.38672 19.8436 8.39453Q19.8633 8.40234 19.8795 8.41797Q19.8958 8.43457 19.9038 8.4541Q19.9115 8.47363 19.9115 8.49512Q19.9115 8.51758 19.9038 8.53711Q19.8958 8.55664 19.8795 8.57227Q19.8633 8.58887 19.8436 8.59668Q19.8246 8.60449 19.8024 8.60449Q19.7803 8.60449 19.7613 8.59668Q19.7416 8.58887 19.7254 8.57227Q19.7091 8.55664 19.7011 8.53711Z" fill="#00C65E" fill-opacity="1.000000" fill-rule="evenodd"/>
		<path id="Vector" d="M17.8679 7.90723C17.5432 7.90723 17.2796 8.1709 17.2796 8.49512C17.2796 8.82031 17.5432 9.08398 17.8679 9.08398C18.1926 9.08398 18.4561 8.82031 18.4561 8.49512C18.4561 8.1709 18.1926 7.90723 17.8679 7.90723Z" fill="#00C65E" fill-opacity="1.000000" fill-rule="evenodd"/>
		<path id="Vector" d="M17.2796 8.49512C17.2796 8.1709 17.5432 7.90723 17.8679 7.90723C18.1926 7.90723 18.4561 8.1709 18.4561 8.49512C18.4561 8.82031 18.1926 9.08398 17.8679 9.08398C17.5432 9.08398 17.2796 8.82031 17.2796 8.49512ZM17.7665 8.53711Q17.7588 8.51758 17.7588 8.49512Q17.7588 8.47363 17.7665 8.4541Q17.7746 8.43457 17.7908 8.41797Q17.8071 8.40234 17.8267 8.39453Q17.8457 8.38672 17.8679 8.38672Q17.89 8.38672 17.909 8.39453Q17.9287 8.40234 17.9449 8.41797Q17.9612 8.43457 17.9692 8.4541Q17.977 8.47363 17.977 8.49512Q17.977 8.51758 17.9692 8.53711Q17.9612 8.55664 17.9449 8.57227Q17.9287 8.58887 17.909 8.59668Q17.89 8.60449 17.8679 8.60449Q17.8457 8.60449 17.8267 8.59668Q17.8071 8.58887 17.7908 8.57227Q17.7746 8.55664 17.7665 8.53711Z" fill="#00C65E" fill-opacity="1.000000" fill-rule="evenodd"/>
	</g>
</svg>
