<svg width="25.000000" height="25.000000" viewBox="0 0 25 25" fill="none" xmlns="http://www.w3.org/2000/svg" xmlns:xlink="http://www.w3.org/1999/xlink">
	<desc>
			Created with Pixso.
	</desc>
	<defs>
		<clipPath id="clip885_3052">
			<rect id="icon personal goods/off" width="25.000000" height="25.000000" fill="white" fill-opacity="0"/>
		</clipPath>
	</defs>
	<g clip-path="url(#clip885_3052)">
		<path id="Vector" d="M18.1426 12.8813C17.8438 11.5613 18.2129 5.45142 18.3535 3.38135C18.3613 3.28906 18.3516 3.1958 18.3203 3.10815C18.2891 3.02051 18.2402 2.94067 18.1758 2.87402C18.1113 2.80737 18.0332 2.75562 17.9453 2.72241C17.8594 2.68921 17.7656 2.67505 17.6738 2.6814L13.8438 2.6814C13.7539 2.68237 13.666 2.7019 13.5859 2.73804C13.5039 2.77441 13.4316 2.82715 13.3711 2.89282C13.3125 2.95825 13.2656 3.03564 13.2363 3.11963C13.207 3.20361 13.1973 3.29272 13.2031 3.38135C13.5371 6.54712 13.5898 9.73608 13.3633 12.9114L7.41406 17.4314C7.11914 17.6501 6.87305 17.9248 6.68555 18.2395C6.49805 18.5542 6.375 18.9026 6.32227 19.2651C6.27148 19.6274 6.29102 19.9966 6.38281 20.3511C6.47266 20.7056 6.63281 21.0388 6.85352 21.3313C7.27539 21.8547 7.88086 22.1982 8.54883 22.293C9.21484 22.3875 9.89062 22.2261 10.4434 21.8413C10.4434 21.8413 12.5938 20.1013 13.6035 19.2314C16.1035 17.0713 16.8438 18.0613 18.1543 16.9614C19.3027 16.0015 18.3242 13.9614 18.1426 12.8813Z" fill="#FFFFFF" fill-opacity="1.000000" fill-rule="nonzero"/>
		<path id="Vector" d="M18.3535 3.38135C18.3613 3.28906 18.3516 3.1958 18.3203 3.10815C18.2891 3.02051 18.2402 2.94067 18.1758 2.87402C18.1113 2.80737 18.0332 2.75562 17.9453 2.72241C17.8594 2.68921 17.7656 2.67505 17.6738 2.6814L13.8438 2.6814C13.7539 2.68237 13.666 2.7019 13.5859 2.73804C13.5039 2.77441 13.4316 2.82715 13.3711 2.89282C13.3125 2.95825 13.2656 3.03564 13.2363 3.11963C13.207 3.20361 13.1973 3.29272 13.2031 3.38135C13.5371 6.54712 13.5898 9.73608 13.3633 12.9114L7.41406 17.4314C7.11914 17.6501 6.87305 17.9248 6.68555 18.2395C6.49805 18.5542 6.375 18.9026 6.32227 19.2651C6.27148 19.6274 6.29102 19.9966 6.38281 20.3511C6.47266 20.7056 6.63281 21.0388 6.85352 21.3313C7.27539 21.8547 7.88086 22.1982 8.54883 22.293C9.21484 22.3875 9.89062 22.2261 10.4434 21.8413C10.4434 21.8413 12.5938 20.1013 13.6035 19.2314C16.1035 17.0713 16.8438 18.0613 18.1543 16.9614C19.3027 16.0015 18.3242 13.9614 18.1426 12.8813C17.8438 11.5613 18.2129 5.45142 18.3535 3.38135Z" stroke="#363A45" stroke-opacity="1.000000" stroke-width="0.700000"/>
		<path id="Vector" d="M18.0156 3.3623C18.0156 3.28149 17.9883 3.20337 17.9355 3.14233C17.877 3.08154 17.7988 3.04565 17.7148 3.04224L13.8359 3.04224C13.752 3.04565 13.6719 3.08154 13.6152 3.14233C13.5625 3.20728 13.5352 3.28857 13.5352 3.37231C13.5742 3.83228 13.6055 4.27222 13.625 4.69214L17.9258 4.69214C17.9551 4.19214 17.9844 3.73218 18.0156 3.3623Z" fill="#00C65E" fill-opacity="1.000000" fill-rule="nonzero"/>
		<path id="Vector" d="M8.74414 17.342C8.45703 17.3445 8.17383 17.3953 7.9043 17.4919L7.67383 17.6821C7.14258 18.062 6.7832 18.6375 6.67383 19.282C6.62695 19.5991 6.64453 19.9224 6.72266 20.2329C6.80273 20.5437 6.94141 20.8357 7.13477 21.092C7.49805 21.5483 8.02539 21.8457 8.60352 21.9221C9.17969 22.0022 9.76562 21.863 10.2441 21.532L10.8438 21.042C11.082 20.6575 11.2051 20.2139 11.2051 19.762C11.1953 19.1157 10.9336 18.4988 10.4727 18.0454C10.0117 17.5923 9.39062 17.3394 8.74414 17.342Z" fill="#00C65E" fill-opacity="1.000000" fill-rule="nonzero"/>
		<path id="Vector" d="M15.9746 16.2021C15.9727 15.636 16.1875 15.0903 16.5742 14.676C16.9609 14.262 17.4902 14.0103 18.0547 13.9722C18.0547 13.9124 18.0547 13.8623 18.0547 13.8123C18.0547 13.7622 17.9551 13.4622 17.9141 13.2922C17.2012 13.3755 16.541 13.7175 16.0625 14.2537C15.584 14.7898 15.3164 15.4832 15.3145 16.2021C15.3105 16.6726 15.4238 17.1365 15.6445 17.5522C15.8711 17.4724 16.1016 17.4058 16.334 17.3523C16.1113 17.0095 15.9863 16.6113 15.9746 16.2021Z" fill="#00C65E" fill-opacity="1.000000" fill-rule="nonzero"/>
	</g>
</svg>
