<svg width="25.000000" height="25.000000" viewBox="0 0 25 25" fill="none" xmlns="http://www.w3.org/2000/svg" xmlns:xlink="http://www.w3.org/1999/xlink">
	<desc>
			Created with Pixso.
	</desc>
	<defs>
		<clipPath id="clip885_3043">
			<rect id="icon transport servise/off" width="25.000000" height="25.000000" fill="white" fill-opacity="0"/>
		</clipPath>
	</defs>
	<g clip-path="url(#clip885_3043)">
		<path id="Vector" d="M15.0898 22.02C17.6309 22.02 19.6895 17.76 19.6895 12.5C19.6895 7.23999 17.6309 2.97998 15.0898 2.97998C12.5508 2.97998 10.4902 7.23999 10.4902 12.5C10.4902 17.76 12.5508 22.02 15.0898 22.02Z" fill="#FFFFFF" fill-opacity="1.000000" fill-rule="nonzero"/>
		<path id="Vector" d="M19.6895 12.5C19.6895 7.23999 17.6309 2.97998 15.0898 2.97998C12.5508 2.97998 10.4902 7.23999 10.4902 12.5C10.4902 17.76 12.5508 22.02 15.0898 22.02C17.6309 22.02 19.6895 17.76 19.6895 12.5Z" stroke="#363A45" stroke-opacity="1.000000" stroke-width="0.700000"/>
		<path id="Vector" d="M15.3906 16.77C16.5312 16.77 17.4512 14.8599 17.4512 12.5C17.4512 10.1399 16.5312 8.22998 15.3906 8.22998C14.25 8.22998 13.3203 10.1399 13.3203 12.5C13.3203 14.8599 14.25 16.77 15.3906 16.77Z" fill="#00C65E" fill-opacity="1.000000" fill-rule="nonzero"/>
		<path id="Vector" d="M9.57031 22.02L15.0898 22.02C12.6797 22.02 10.7305 17.76 10.7305 12.5C10.7305 7.23999 12.6797 2.97998 15.0898 2.97998L9.66016 2.97998C7.25977 2.97998 5.31055 7.23999 5.31055 12.5C5.31055 17.76 7.31055 22.02 9.66016 22.02" fill="#FFFFFF" fill-opacity="1.000000" fill-rule="nonzero"/>
		<path id="Vector" d="M9.57031 22.02L15.0898 22.02C12.6797 22.02 10.7305 17.76 10.7305 12.5C10.7305 7.23999 12.6797 2.97998 15.0898 2.97998L9.66016 2.97998C7.25977 2.97998 5.31055 7.23999 5.31055 12.5C5.31055 17.76 7.31055 22.02 9.66016 22.02" stroke="#363A45" stroke-opacity="1.000000" stroke-width="0.700000"/>
		<path id="Vector" d="M9.57031 22.02L15.0898 22.02C12.6797 22.02 10.7305 17.76 10.7305 12.5C10.7305 7.23999 12.6797 2.97998 15.0898 2.97998L9.66016 2.97998C7.25977 2.97998 5.31055 7.23999 5.31055 12.5C5.31055 17.76 7.31055 22.02 9.66016 22.02" stroke="#363A45" stroke-opacity="1.000000" stroke-width="0.700000"/>
		<path id="Vector" d="M10.3594 5.39014C9.33203 7.61304 8.83008 10.0422 8.88867 12.4902C8.81836 14.9617 9.32227 17.4158 10.3594 19.6602" stroke="#363A45" stroke-opacity="1.000000" stroke-width="0.700000" stroke-linecap="round"/>
		<path id="Vector" d="M7.49023 8.12939C7.16211 9.55957 7.00195 11.0225 7.00977 12.4895C7.00195 13.9531 7.16211 15.4128 7.49023 16.8394" stroke="#363A45" stroke-opacity="1.000000" stroke-width="0.700000" stroke-linecap="round"/>
	</g>
</svg>
