<svg width="15" height="16" viewBox="0 0 15 16" fill="none" xmlns="http://www.w3.org/2000/svg">
<path fill-rule="evenodd" clip-rule="evenodd" d="M0.274684 1.38105C0.274684 0.663085 0.856714 0.0810547 1.57468 0.0810547H12.9747C13.6927 0.0810547 14.2747 0.663085 14.2747 1.38105C14.2747 2.09902 13.6927 2.68105 12.9747 2.68105H1.57468C0.856713 2.68105 0.274684 2.09902 0.274684 1.38105ZM0.274414 7.57832C0.274414 6.86035 0.856444 6.27832 1.57441 6.27832H12.9744C13.6924 6.27832 14.2744 6.86035 14.2744 7.57832C14.2744 8.29629 13.6924 8.87832 12.9744 8.87832H1.57441C0.856443 8.87832 0.274414 8.29629 0.274414 7.57832ZM1.57441 12.4756C0.856444 12.4756 0.274414 13.0576 0.274414 13.7756C0.274414 14.4936 0.856444 15.0756 1.57441 15.0756H6.97441C7.69238 15.0756 8.27441 14.4936 8.27441 13.7756C8.27441 13.0576 7.69238 12.4756 6.97441 12.4756H1.57441Z" fill="#363A45"/>
</svg>
