<svg width="18" height="12" viewBox="0 0 18 12" fill="none" xmlns="http://www.w3.org/2000/svg">
<mask id="path-1-inside-1_14849_28860" fill="white">
<path fill-rule="evenodd" clip-rule="evenodd" d="M0.274414 1.12659C0.274414 0.51302 0.771809 0.015625 1.38538 0.015625H11.1068C11.7204 0.015625 12.2178 0.51302 12.2178 1.12659V2.7405H14.9506C15.3855 2.7405 15.7805 2.99434 15.9612 3.39001L17.174 6.0462C17.2402 6.19104 17.2744 6.34842 17.2744 6.50765V8.68056C17.2744 9.29412 16.777 9.79152 16.1634 9.79152H11.6655V9.79074H1.38538C0.771811 9.79074 0.274414 9.29334 0.274414 8.67977V1.12659Z"/>
</mask>
<path d="M12.2178 2.7405H11.5178V3.4405H12.2178V2.7405ZM15.9612 3.39001L15.3244 3.68076L15.9612 3.39001ZM17.174 6.0462L16.5373 6.33695L16.5373 6.33696L17.174 6.0462ZM11.6655 9.79152H10.9655V10.4915H11.6655V9.79152ZM11.6655 9.79074H12.3655V9.09074H11.6655V9.79074ZM1.38538 -0.684375C0.38521 -0.684375 -0.425586 0.126421 -0.425586 1.12659H0.974414C0.974414 0.89962 1.15841 0.715625 1.38538 0.715625V-0.684375ZM11.1068 -0.684375H1.38538V0.715625H11.1068V-0.684375ZM12.9178 1.12659C12.9178 0.12642 12.107 -0.684375 11.1068 -0.684375V0.715625C11.3338 0.715625 11.5178 0.899621 11.5178 1.12659H12.9178ZM12.9178 2.7405V1.12659H11.5178V2.7405H12.9178ZM14.9506 2.0405H12.2178V3.4405H14.9506V2.0405ZM16.5979 3.09925C16.3034 2.45428 15.6596 2.0405 14.9506 2.0405V3.4405C15.1115 3.4405 15.2576 3.5344 15.3244 3.68076L16.5979 3.09925ZM17.8108 5.75544L16.5979 3.09925L15.3244 3.68076L16.5373 6.33695L17.8108 5.75544ZM17.9744 6.50765C17.9744 6.24809 17.9186 5.99156 17.8108 5.75544L16.5373 6.33696C16.5617 6.39053 16.5744 6.44875 16.5744 6.50765H17.9744ZM17.9744 8.68056V6.50765H16.5744V8.68056H17.9744ZM16.1634 10.4915C17.1636 10.4915 17.9744 9.68072 17.9744 8.68056H16.5744C16.5744 8.90752 16.3904 9.09152 16.1634 9.09152V10.4915ZM11.6655 10.4915H16.1634V9.09152H11.6655V10.4915ZM10.9655 9.79074V9.79152H12.3655V9.79074H10.9655ZM1.38538 10.4907H11.6655V9.09074H1.38538V10.4907ZM-0.425586 8.67977C-0.425586 9.67994 0.385213 10.4907 1.38538 10.4907V9.09074C1.15841 9.09074 0.974414 8.90674 0.974414 8.67977H-0.425586ZM-0.425586 1.12659V8.67977H0.974414V1.12659H-0.425586Z" fill="#363A45" mask="url(#path-1-inside-1_14849_28860)"/>
<path d="M14.7061 3.85547H12.8574C12.7347 3.85547 12.6353 3.95495 12.6353 4.07766V6.15676C12.6353 6.27948 12.7347 6.37896 12.8574 6.37896H15.7327C15.8945 6.37896 16.002 6.21162 15.9348 6.06447L15.0176 4.05564C14.9619 3.9337 14.8402 3.85547 14.7061 3.85547Z" fill="#00C65E"/>
<path d="M11.0778 9.29857C11.0778 10.1245 11.7473 10.794 12.5733 10.794C13.3992 10.794 14.0687 10.1245 14.0687 9.29857C14.0687 8.47266 13.3992 7.80312 12.5733 7.80312C11.7473 7.80312 11.0778 8.47266 11.0778 9.29857Z" fill="white" stroke="#363A45" stroke-width="0.7"/>
<path d="M12.574 10.2224C12.0644 10.2224 11.6513 9.80929 11.6513 9.29968C11.6513 8.79007 12.0644 8.37695 12.574 8.37695C13.0836 8.37695 13.4967 8.79007 13.4967 9.29968C13.4967 9.80929 13.0836 10.2224 12.574 10.2224Z" fill="#00C65E"/>
<path d="M3.48039 9.29857C3.48039 10.1245 4.14993 10.794 4.97584 10.794C5.80175 10.794 6.47129 10.1245 6.47129 9.29857C6.47129 8.47266 5.80175 7.80312 4.97584 7.80312C4.14993 7.80312 3.48039 8.47266 3.48039 9.29857Z" fill="white" stroke="#363A45" stroke-width="0.7"/>
<path d="M4.97657 10.2224C4.46696 10.2224 4.05384 9.80929 4.05384 9.29968C4.05384 8.79007 4.46696 8.37695 4.97657 8.37695C5.48617 8.37695 5.89929 8.79007 5.89929 9.29968C5.89929 9.80929 5.48617 10.2224 4.97657 10.2224Z" fill="#00C65E"/>
</svg>
