<svg width="18" height="14" viewBox="0 0 18 14" fill="none" xmlns="http://www.w3.org/2000/svg">
<path d="M4.28564 5.95959H1.28564C1.04604 5.95959 0.785645 5.73437 0.785645 5.38266V1.07497C0.785645 0.723264 1.04604 0.498047 1.28564 0.498047H4.28564C4.52525 0.498047 4.78564 0.723264 4.78564 1.07497V5.38266C4.78564 5.73437 4.52525 5.95959 4.28564 5.95959ZM4.28564 13.498H1.28564C1.04604 13.498 0.785645 13.2728 0.785645 12.9211V8.61343C0.785645 8.26173 1.04604 8.03651 1.28564 8.03651H4.28564C4.52525 8.03651 4.78564 8.26173 4.78564 8.61343V12.9211C4.78564 13.2728 4.52525 13.498 4.28564 13.498ZM10.2856 13.498H7.28564C7.04604 13.498 6.78564 13.2728 6.78564 12.9211V8.61343C6.78564 8.26173 7.04604 8.03651 7.28564 8.03651H10.2856C10.5253 8.03651 10.7856 8.26173 10.7856 8.61343V12.9211C10.7856 13.2728 10.5253 13.498 10.2856 13.498ZM16.2856 13.498H13.2856C13.046 13.498 12.7856 13.2728 12.7856 12.9211V8.61343C12.7856 8.26173 13.046 8.03651 13.2856 8.03651H16.2856C16.5253 8.03651 16.7856 8.26173 16.7856 8.61343V12.9211C16.7856 13.2728 16.5253 13.498 16.2856 13.498ZM10.2856 5.95959H7.28564C7.04604 5.95959 6.78564 5.73437 6.78564 5.38266V1.07497C6.78564 0.723264 7.04604 0.498047 7.28564 0.498047H10.2856C10.5253 0.498047 10.7856 0.723264 10.7856 1.07497V5.38266C10.7856 5.73437 10.5253 5.95959 10.2856 5.95959ZM12.7856 5.38266V1.07497C12.7856 0.723264 13.046 0.498047 13.2856 0.498047H16.2856C16.5253 0.498047 16.7856 0.723264 16.7856 1.07497V5.38266C16.7856 5.73437 16.5253 5.95959 16.2856 5.95959H13.2856C13.046 5.95959 12.7856 5.73437 12.7856 5.38266Z" stroke="#DADCDC"/>
</svg>
