<svg width="18" height="18" viewBox="0 0 18 18" fill="none" xmlns="http://www.w3.org/2000/svg">
<path d="M1.64242 0.271484C1.45455 0.271484 1.27439 0.346112 1.14155 0.478951C1.00871 0.611789 0.934082 0.791956 0.934082 0.979818C0.934082 1.16768 1.00871 1.34785 1.14155 1.48068C1.27439 1.61352 1.45455 1.68815 1.64242 1.68815H1.99092C2.14472 1.68842 2.29427 1.73874 2.41695 1.83152C2.53962 1.92429 2.62877 2.05448 2.67092 2.2024L4.91775 10.0649C5.04483 10.5086 5.31291 10.8989 5.68148 11.1767C6.05004 11.4545 6.49904 11.6048 6.96058 11.6048H13.4333C13.8581 11.6049 14.2732 11.4777 14.6249 11.2395C14.9767 11.0014 15.249 10.6633 15.4067 10.2689L17.4949 5.04707C17.5808 4.8322 17.6127 4.59957 17.5878 4.36952C17.563 4.13947 17.4822 3.919 17.3525 3.72738C17.2228 3.53577 17.0482 3.37884 16.8438 3.27031C16.6395 3.16178 16.4116 3.10496 16.1803 3.10482H4.40208L4.03233 1.81282C3.90558 1.36908 3.63781 0.978665 3.26951 0.700588C2.90122 0.422511 2.4524 0.271887 1.99092 0.271484H1.64242ZM6.28058 9.6739L4.80725 4.52148H16.1788L14.0907 9.74332C14.038 9.87462 13.9473 9.98717 13.8302 10.0664C13.713 10.1457 13.5748 10.1881 13.4333 10.1882H6.96058C6.80677 10.1879 6.65723 10.1376 6.53455 10.0448C6.41187 9.95201 6.32273 9.82182 6.28058 9.6739V9.6739Z" fill="#363A45"/>
<path d="M7.30908 17.2715C7.58814 17.2715 7.86447 17.2165 8.12228 17.1097C8.3801 17.0029 8.61436 16.8464 8.81168 16.6491C9.00901 16.4518 9.16553 16.2175 9.27233 15.9597C9.37912 15.7019 9.43408 15.4255 9.43408 15.1465C9.43408 14.8674 9.37912 14.5911 9.27233 14.3333C9.16553 14.0755 9.00901 13.8412 8.81168 13.6439C8.61436 13.4466 8.3801 13.29 8.12228 13.1832C7.86447 13.0764 7.58814 13.0215 7.30908 13.0215C6.7455 13.0215 6.20499 13.2454 5.80648 13.6439C5.40797 14.0424 5.18408 14.5829 5.18408 15.1465C5.18408 15.7101 5.40797 16.2506 5.80648 16.6491C6.20499 17.0476 6.7455 17.2715 7.30908 17.2715ZM7.30908 15.8548C7.12122 15.8548 6.94105 15.7802 6.80821 15.6474C6.67538 15.5145 6.60075 15.3343 6.60075 15.1465C6.60075 14.9586 6.67538 14.7785 6.80821 14.6456C6.94105 14.5128 7.12122 14.4382 7.30908 14.4382C7.49694 14.4382 7.67711 14.5128 7.80995 14.6456C7.94279 14.7785 8.01742 14.9586 8.01742 15.1465C8.01742 15.3343 7.94279 15.5145 7.80995 15.6474C7.67711 15.7802 7.49694 15.8548 7.30908 15.8548Z" fill="#363A45"/>
<path d="M12.9758 17.2715C13.2549 17.2715 13.5312 17.2165 13.789 17.1097C14.0468 17.0029 14.2811 16.8464 14.4784 16.6491C14.6758 16.4518 14.8323 16.2175 14.9391 15.9597C15.0459 15.7019 15.1008 15.4255 15.1008 15.1465C15.1008 14.8674 15.0459 14.5911 14.9391 14.3333C14.8323 14.0755 14.6758 13.8412 14.4784 13.6439C14.2811 13.4466 14.0468 13.29 13.789 13.1832C13.5312 13.0764 13.2549 13.0215 12.9758 13.0215C12.4122 13.0215 11.8717 13.2454 11.4732 13.6439C11.0747 14.0424 10.8508 14.5829 10.8508 15.1465C10.8508 15.7101 11.0747 16.2506 11.4732 16.6491C11.8717 17.0476 12.4122 17.2715 12.9758 17.2715ZM12.9758 15.8548C12.788 15.8548 12.6078 15.7802 12.475 15.6474C12.3421 15.5145 12.2675 15.3343 12.2675 15.1465C12.2675 14.9586 12.3421 14.7785 12.475 14.6456C12.6078 14.5128 12.788 14.4382 12.9758 14.4382C13.1637 14.4382 13.3439 14.5128 13.4767 14.6456C13.6095 14.7785 13.6842 14.9586 13.6842 15.1465C13.6842 15.3343 13.6095 15.5145 13.4767 15.6474C13.3439 15.7802 13.1637 15.8548 12.9758 15.8548Z" fill="#363A45"/>
</svg>
