<?xml version="1.0" standalone="no"?>
<!DOCTYPE svg PUBLIC "-//W3C//DTD SVG 20010904//EN"
 "http://www.w3.org/TR/2001/REC-SVG-20010904/DTD/svg10.dtd">
<svg version="1.0" xmlns="http://www.w3.org/2000/svg"
 width="227.000000pt" height="222.000000pt" viewBox="0 0 227.000000 222.000000"
 preserveAspectRatio="xMidYMid meet">

<g transform="translate(0.000000,222.000000) scale(0.100000,-0.100000)"
fill="#000000" stroke="none">
<path d="M836 2188 c-7 -13 -16 -35 -20 -50 -6 -27 -5 -28 33 -28 22 0 41 5
43 11 2 7 12 7 31 0 28 -11 315 -16 305 -6 -8 8 -337 95 -359 95 -10 0 -25
-10 -33 -22z"/>
<path d="M410 2031 c-5 -11 -10 -37 -10 -59 l0 -40 -82 -22 c-253 -67 -291
-79 -306 -93 -14 -14 4 -88 186 -770 l202 -754 0 -122 c0 -67 5 -131 10 -142
10 -19 29 -19 733 -19 549 0 726 3 735 12 8 8 12 62 12 177 l0 166 191 718
c174 650 191 720 177 734 -9 8 -94 36 -190 62 l-173 47 -5 60 -5 59 -732 3
c-716 2 -732 2 -743 -17z m1410 -996 l0 -945 -670 0 -670 0 0 945 0 945 670 0
670 0 0 -945z m-1421 188 c0 -346 -2 -623 -4 -618 -11 27 -305 1140 -305 1151
0 8 12 17 28 20 15 4 79 22 142 39 63 18 121 33 128 34 9 1 12 -130 11 -626z
m1668 576 c62 -18 113 -37 113 -43 0 -17 -279 -1058 -285 -1064 -3 -3 -5 255
-5 573 l0 578 32 -7 c18 -3 83 -20 145 -37z"/>
<path d="M645 1648 c-3 -7 -4 -173 -3 -368 l3 -355 505 0 505 0 0 365 0 365
-503 3 c-398 2 -504 0 -507 -10z m955 -174 l0 -126 -77 -91 c-42 -51 -78 -94
-80 -96 -2 -3 -41 32 -86 77 -115 114 -128 111 -147 -35 -7 -51 -16 -93 -20
-93 -4 0 -54 56 -111 125 -57 68 -109 127 -116 129 -14 6 -59 -28 -172 -133
l-91 -83 0 226 0 226 450 0 450 0 0 -126z m-522 -339 c67 -80 129 -145 137
-145 21 0 31 25 44 115 20 130 13 128 103 39 l79 -79 47 55 c26 30 62 71 79
90 l32 35 1 -132 0 -133 -450 0 -450 0 0 39 c0 38 6 45 121 150 67 61 125 111
129 111 3 0 61 -65 128 -145z"/>
<path d="M1231 1568 c-20 -13 -38 -36 -43 -53 -28 -107 119 -171 175 -76 24
42 21 76 -10 111 -38 42 -79 48 -122 18z m79 -52 c6 -8 10 -25 8 -38 -6 -42
-78 -32 -78 11 0 37 46 55 70 27z"/>
<path d="M634 796 c-3 -8 -4 -25 -2 -38 2 -19 9 -23 38 -23 31 0 35 3 38 29 2
16 -2 32 -10 37 -21 14 -58 10 -64 -5z"/>
<path d="M754 796 c-3 -8 -4 -25 -2 -38 l3 -23 295 0 295 0 0 35 0 35 -293 3
c-247 2 -293 0 -298 -12z"/>
<path d="M637 643 c-16 -16 -6 -53 16 -58 12 -3 242 -4 511 -3 437 3 490 5
499 19 6 9 7 24 4 33 -6 14 -53 16 -515 16 -280 0 -512 -3 -515 -7z"/>
<path d="M637 483 c-4 -3 -7 -17 -7 -30 l0 -23 518 2 517 3 0 25 0 25 -511 3
c-281 1 -514 -1 -517 -5z"/>
</g>
</svg>
