<svg width="18.750000" height="15.000000" viewBox="0 0 18.75 15" fill="none" xmlns="http://www.w3.org/2000/svg" xmlns:xlink="http://www.w3.org/1999/xlink">
	<desc>
			Created with Pixso.
	</desc>
	<defs/>
	<rect id="btn list view/off" width="15.937310" height="13.124844" fill="#FFFFFF" fill-opacity="0"/>
	<path id="Vector" d="M3.09131 4.73047C3.00342 4.70312 2.90967 4.6875 2.8125 4.6875L0.9375 4.6875C0.840332 4.6875 0.746582 4.70312 0.658691 4.73047C0.277832 4.84961 0 5.20703 0 5.625L0 7.5C0 7.91797 0.277832 8.27539 0.658691 8.39453C0.746582 8.42188 0.840332 8.4375 0.9375 8.4375L2.8125 8.4375C2.90967 8.4375 3.00342 8.42188 3.09131 8.39453C3.38379 8.30273 3.61572 8.07031 3.70752 7.7793C3.73486 7.69141 3.75 7.59766 3.75 7.5L3.75 5.625C3.75 5.52734 3.73486 5.43359 3.70752 5.3457C3.61572 5.05273 3.38379 4.82227 3.09131 4.73047ZM4.72998 5.3457C4.70215 5.43359 4.6875 5.52734 4.6875 5.625L4.6875 7.5C4.6875 7.59766 4.70215 7.69141 4.72998 7.7793C4.82178 8.07031 5.05371 8.30273 5.34619 8.39453C5.43408 8.42188 5.52783 8.4375 5.625 8.4375L15 8.4375C15.0967 8.4375 15.1904 8.42188 15.2788 8.39453C15.6592 8.27539 15.9375 7.91797 15.9375 7.5L15.9375 5.625C15.9375 5.20703 15.6592 4.84961 15.2788 4.73047C15.1904 4.70312 15.0967 4.6875 15 4.6875L5.625 4.6875C5.52783 4.6875 5.43408 4.70312 5.34619 4.73047C5.05371 4.82227 4.82178 5.05273 4.72998 5.3457ZM5.34619 3.70703C5.43408 3.73438 5.52783 3.75 5.625 3.75L15 3.75C15.0967 3.75 15.1904 3.73438 15.2788 3.70703C15.6592 3.58789 15.9375 3.23047 15.9375 2.8125L15.9375 0.9375C15.9375 0.421875 15.5156 0 15 0L5.625 0C5.20654 0 4.84961 0.277344 4.72998 0.658203C4.70215 0.746094 4.6875 0.839844 4.6875 0.9375L4.6875 2.8125C4.6875 2.91016 4.70215 3.00391 4.72998 3.0918C4.82178 3.38281 5.05371 3.61523 5.34619 3.70703ZM3.70752 3.0918C3.73486 3.00391 3.75 2.91016 3.75 2.8125L3.75 0.9375C3.75 0.839844 3.73486 0.746094 3.70752 0.658203C3.58789 0.277344 3.23096 0 2.8125 0L0.9375 0C0.421875 0 0 0.421875 0 0.9375L0 2.8125C0 3.23047 0.277832 3.58789 0.658691 3.70703C0.746582 3.73438 0.840332 3.75 0.9375 3.75L2.8125 3.75C2.90967 3.75 3.00342 3.73438 3.09131 3.70703C3.38379 3.61523 3.61572 3.38281 3.70752 3.0918ZM3.70752 12.4668C3.73486 12.3789 3.75 12.2852 3.75 12.1875L3.75 10.3125C3.75 10.2148 3.73486 10.1211 3.70752 10.0332C3.61572 9.74023 3.38379 9.50977 3.09131 9.41797C3.00342 9.39062 2.90967 9.375 2.8125 9.375L0.9375 9.375C0.840332 9.375 0.746582 9.39062 0.658691 9.41797C0.277832 9.53711 0 9.89453 0 10.3125L0 12.1875C0 12.7031 0.421875 13.125 0.9375 13.125L2.8125 13.125C3.23096 13.125 3.58789 12.8477 3.70752 12.4668ZM4.72998 10.0332C4.70215 10.1211 4.6875 10.2148 4.6875 10.3125L4.6875 12.1875C4.6875 12.2852 4.70215 12.3789 4.72998 12.4668C4.84961 12.8477 5.20654 13.125 5.625 13.125L15 13.125C15.5156 13.125 15.9375 12.7031 15.9375 12.1875L15.9375 10.3125C15.9375 9.89453 15.6592 9.53711 15.2788 9.41797C15.1904 9.39062 15.0967 9.375 15 9.375L5.625 9.375C5.52783 9.375 5.43408 9.39062 5.34619 9.41797C5.05371 9.50977 4.82178 9.74023 4.72998 10.0332ZM2.75 2.75L1 2.75L1 1L2.75 1L2.75 2.75ZM5.6875 2.75L14.9375 2.75L14.9375 1L5.6875 1L5.6875 2.75ZM2.75 7.4375L2.75 5.6875L1 5.6875L1 7.4375L2.75 7.4375ZM14.9375 7.4375L14.9375 5.6875L5.6875 5.6875L5.6875 7.4375L14.9375 7.4375ZM2.75 12.125L2.75 10.375L1 10.375L1 12.125L2.75 12.125ZM14.9375 12.125L14.9375 10.375L5.6875 10.375L5.6875 12.125L14.9375 12.125Z" fill="#363A45" fill-opacity="1.000000" fill-rule="evenodd"/>
	<circle id="Ellipse 17" cx="14.531250" cy="10.781250" r="4.218700" fill="#00C65E" fill-opacity="1.000000"/>
	<circle id="Ellipse 17" cx="14.531250" cy="10.781250" r="3.335476" stroke="#00C65E" stroke-opacity="1.000000" stroke-width="1.766448"/>
	<path id="Union" d="" fill="#FFFFFF" fill-opacity="1.000000" fill-rule="nonzero"/>
</svg>
