<svg width="22" height="18" viewBox="0 0 22 18" fill="none" xmlns="http://www.w3.org/2000/svg">
<path d="M3.50757 9.5625H1.38257C1.07434 9.5625 0.820068 9.30823 0.820068 9V6.875C0.820068 6.56677 1.07434 6.3125 1.38257 6.3125H3.50757C3.8158 6.3125 4.07007 6.56677 4.07007 6.875V9C4.07007 9.30823 3.8158 9.5625 3.50757 9.5625ZM3.50757 14.875H1.38257C1.07434 14.875 0.820068 14.6207 0.820068 14.3125V12.1875C0.820068 11.8793 1.07434 11.625 1.38257 11.625H3.50757C3.8158 11.625 4.07007 11.8793 4.07007 12.1875V14.3125C4.07007 14.6207 3.8158 14.875 3.50757 14.875ZM3.50757 4.25H1.38257C1.07434 4.25 0.820068 3.99573 0.820068 3.6875V1.5625C0.820068 1.25427 1.07434 1 1.38257 1H3.50757C3.8158 1 4.07007 1.25427 4.07007 1.5625V3.6875C4.07007 3.99573 3.8158 4.25 3.50757 4.25ZM17.3201 9.5625H6.69507C6.38684 9.5625 6.13257 9.30823 6.13257 9V6.875C6.13257 6.56677 6.38684 6.3125 6.69507 6.3125H17.3201C17.6283 6.3125 17.8826 6.56677 17.8826 6.875V9C17.8826 9.30823 17.6283 9.5625 17.3201 9.5625ZM17.3201 14.875H6.69507C6.38684 14.875 6.13257 14.6207 6.13257 14.3125V12.1875C6.13257 11.8793 6.38684 11.625 6.69507 11.625H17.3201C17.6283 11.625 17.8826 11.8793 17.8826 12.1875V14.3125C17.8826 14.6207 17.6283 14.875 17.3201 14.875ZM6.13257 3.6875V1.5625C6.13257 1.25427 6.38684 1 6.69507 1H17.3201C17.6283 1 17.8826 1.25427 17.8826 1.5625V3.6875C17.8826 3.99573 17.6283 4.25 17.3201 4.25H6.69507C6.38684 4.25 6.13257 3.99573 6.13257 3.6875Z" stroke="#363A45"/>
<circle cx="16.7888" cy="12.7188" r="3.89803" fill="#00C65E" stroke="#00C65E" stroke-width="1.76645"/>
<path fill-rule="evenodd" clip-rule="evenodd" d="M16.7887 10.2734C16.6237 10.2734 16.4899 10.4072 16.4899 10.5723V12.4199H14.6421C14.4771 12.4199 14.3433 12.5537 14.3433 12.7188C14.3433 12.8838 14.4771 13.0176 14.6421 13.0176H16.4899V14.8651C16.4899 15.0302 16.6237 15.164 16.7887 15.164C16.9538 15.164 17.0876 15.0302 17.0876 14.8651V13.0176H18.935C19.1 13.0176 19.2338 12.8838 19.2338 12.7188C19.2338 12.5537 19.1 12.4199 18.935 12.4199H17.0876V10.5723C17.0876 10.4072 16.9538 10.2734 16.7887 10.2734Z" fill="white"/>
</svg>
