<?xml version="1.0" standalone="no"?>
<!DOCTYPE svg PUBLIC "-//W3C//DTD SVG 20010904//EN"
 "http://www.w3.org/TR/2001/REC-SVG-20010904/DTD/svg10.dtd">
<svg version="1.0" xmlns="http://www.w3.org/2000/svg"
 width="225.000000pt" height="225.000000pt" viewBox="0 0 225.000000 225.000000"
 preserveAspectRatio="xMidYMid meet">

<g transform="translate(0.000000,225.000000) scale(0.100000,-0.100000)"
fill="#000000" stroke="none">
<path d="M265 2226 c-104 -33 -172 -90 -221 -186 l-29 -55 -3 -639 -3 -638 32
-69 c53 -116 147 -183 277 -200 37 -4 196 -8 355 -9 l287 0 0 -75 c0 -142 71
-256 195 -316 l60 -29 385 0 385 0 55 26 c71 33 124 84 163 159 l32 60 3 500
3 501 -30 44 c-16 25 -130 145 -253 267 -193 191 -230 223 -268 233 -29 8
-117 11 -263 9 l-219 -3 -200 194 c-109 107 -216 205 -236 217 -35 22 -46 23
-252 22 -144 0 -228 -5 -255 -13z m397 -155 c105 -11 113 -23 122 -174 9 -166
10 -167 162 -167 127 0 158 -9 174 -53 6 -19 10 -199 10 -505 l0 -475 -42 -39
c-23 -21 -57 -42 -77 -48 -50 -14 -681 -13 -718 1 -42 15 -102 78 -113 119 -7
22 -8 247 -4 630 6 565 8 597 26 627 32 54 73 76 152 84 101 9 230 9 308 0z
m1039 -460 c28 -29 29 -32 29 -136 0 -117 14 -161 53 -169 12 -3 73 -7 136 -9
172 -7 155 49 159 -530 1 -375 -1 -488 -11 -507 -7 -14 -37 -40 -67 -57 l-54
-33 -343 0 c-325 0 -346 1 -383 20 -22 11 -52 39 -67 62 -24 36 -28 54 -31
129 l-4 88 65 63 c46 45 70 77 82 113 10 28 21 54 25 58 4 5 81 -48 171 -117
l164 -126 5 117 5 118 128 3 127 3 0 79 0 80 -130 0 -130 0 0 115 c0 63 -2
115 -5 115 -3 0 -51 -35 -108 -78 -179 -138 -212 -162 -219 -162 -5 0 -8 178
-8 395 l0 395 191 0 191 0 29 -29z"/>
<path d="M600 1405 l0 -115 -125 0 -125 0 0 -80 0 -80 125 0 125 0 0 -104 c0
-57 3 -111 6 -120 5 -12 35 6 132 81 194 148 277 214 279 221 1 4 -17 21 -40
38 -41 31 -171 131 -296 227 -33 26 -66 47 -71 47 -6 0 -10 -46 -10 -115z"/>
</g>
</svg>
