<?xml version="1.0" standalone="no"?>
<!DOCTYPE svg PUBLIC "-//W3C//DTD SVG 20010904//EN"
 "http://www.w3.org/TR/2001/REC-SVG-20010904/DTD/svg10.dtd">
<svg version="1.0" xmlns="http://www.w3.org/2000/svg"
 width="275.000000pt" height="183.000000pt" viewBox="0 0 275.000000 183.000000"
 preserveAspectRatio="xMidYMid meet">

<g transform="translate(0.000000,183.000000) scale(0.100000,-0.100000)"
fill="#000000" stroke="none">
<path d="M107 1816 c-51 -19 -73 -40 -92 -90 -14 -36 -15 -122 -13 -702 l3
-661 29 -37 c44 -58 73 -66 251 -66 152 0 156 0 164 23 5 12 5 30 -1 40 -8 15
-26 17 -159 17 l-151 0 -29 29 -29 30 2 649 c3 623 4 651 22 671 19 21 20 21
752 21 l733 0 20 -26 c21 -26 21 -34 21 -700 l0 -674 -181 -2 c-161 -3 -183
-5 -193 -20 -8 -13 -8 -23 0 -35 10 -16 34 -18 219 -21 145 -2 212 1 221 9 8
6 14 27 14 45 l0 34 90 0 90 0 0 35 c0 58 38 141 91 200 68 74 138 107 238
113 196 11 327 -94 381 -305 l11 -43 71 0 71 0 -6 113 c-7 125 -21 187 -61
266 -61 119 -192 207 -359 239 l-84 17 -13 47 c-20 78 -137 305 -167 325 -22
15 -55 19 -190 21 l-163 4 0 167 c0 158 -1 170 -23 201 -12 19 -38 43 -57 54
-34 21 -49 21 -760 23 -594 2 -732 0 -763 -11z m1873 -600 c34 -51 110 -203
110 -223 0 -10 -31 -13 -135 -13 l-135 0 0 140 0 140 65 0 64 0 31 -44z"/>
<path d="M725 1573 c-163 -59 -273 -188 -297 -352 -28 -189 71 -370 249 -454
55 -25 83 -32 154 -35 189 -9 337 79 418 248 33 70 36 82 36 170 0 96 -9 150
-24 150 -4 0 -20 -17 -34 -37 -21 -31 -25 -46 -20 -79 7 -57 -21 -159 -63
-222 -60 -91 -178 -152 -293 -152 -22 0 -69 9 -107 21 -57 18 -77 31 -129 82
-45 45 -68 78 -83 120 -29 76 -29 177 -1 251 57 153 242 254 397 216 49 -11
52 -11 88 16 l37 29 -44 19 c-63 28 -216 33 -284 9z"/>
<path d="M1046 1386 c-36 -35 -90 -99 -122 -143 -31 -43 -61 -82 -65 -87 -4
-5 -27 8 -50 28 -37 32 -49 36 -96 36 -29 0 -53 -4 -53 -8 0 -4 30 -39 68 -77
37 -39 81 -96 97 -127 17 -32 32 -58 35 -58 3 0 20 29 38 65 50 95 140 227
231 338 l81 97 -50 0 c-49 0 -53 -2 -114 -64z"/>
<path d="M2155 603 c-92 -33 -156 -97 -185 -187 -16 -50 -9 -161 14 -204 26
-50 85 -111 130 -134 59 -30 172 -36 233 -13 57 22 128 85 155 139 26 51 35
151 18 209 -41 149 -220 242 -365 190z m158 -184 c15 -11 32 -37 38 -58 32
-107 -106 -185 -183 -103 -14 15 -29 37 -33 50 -9 32 12 88 42 112 35 27 102
27 136 -1z"/>
<path d="M787 570 c-129 -33 -227 -150 -227 -274 0 -161 128 -289 290 -289
110 0 208 61 255 158 24 50 31 152 15 209 -37 135 -198 229 -333 196z m113
-185 c32 -17 60 -61 60 -95 0 -34 -28 -78 -60 -95 -79 -41 -165 12 -163 100 2
82 87 129 163 90z"/>
</g>
</svg>
