<svg width="16" height="14" viewBox="0 0 16 14" fill="none" xmlns="http://www.w3.org/2000/svg">
<path d="M7.44527 2.36233L7.78368 2.90108L8.12254 2.36262C8.72614 1.40347 9.44486 0.843594 10.1637 0.584633C10.8825 0.325687 11.6284 0.357483 12.3094 0.627115C13.6739 1.16733 14.7997 2.67904 14.7997 4.74203C14.7997 5.45734 14.431 6.32935 13.7984 7.28228C13.1733 8.22389 12.3261 9.19223 11.4477 10.0892C10.571 10.9845 9.67248 11.7993 8.95031 12.4348C8.69089 12.6631 8.45555 12.8671 8.25141 13.0441C8.17101 13.1137 8.09544 13.1792 8.02515 13.2404C7.93688 13.3172 7.85475 13.3889 7.78135 13.454C7.70378 13.3872 7.61679 13.3138 7.52353 13.2357C7.42189 13.1505 7.31063 13.0578 7.19017 12.9575C7.00153 12.8004 6.79034 12.6246 6.55826 12.4292C5.8031 11.7932 4.86074 10.9781 3.94007 10.0824C3.01763 9.18495 2.12704 8.21631 1.4697 7.27457C0.803668 6.32039 0.418311 5.45128 0.418311 4.74203C0.418311 2.6774 1.61839 1.15997 3.07753 0.617468C4.51435 0.0832665 6.25866 0.473225 7.44527 2.36233Z" />
</svg>
