<svg xmlns="http://www.w3.org/2000/svg" width="219" height="230" viewBox="0 0 219 230" version="1.1"><path d="M 103.500 11.424 C 101.850 12.164, 96.675 16.025, 92 20.005 C 87.325 23.985, 66.513 41.419, 45.750 58.747 C 20.391 79.911, 8 90.877, 8 92.153 C 8 94.614, 14.598 103.447, 17.660 105.086 C 20.578 106.647, 19.910 107.116, 45.490 85.583 C 75.033 60.715, 106.258 34.625, 108.071 33.293 C 109.715 32.086, 119.292 39.777, 185.769 95.682 C 198.245 106.173, 198.679 106.444, 201.363 105.414 C 203.758 104.495, 211 94.551, 211 92.180 C 211 90.652, 206.878 86.621, 196.500 78 L 182 65.955 182 39.036 C 182 18.590, 181.699 11.928, 180.750 11.327 C 179.294 10.406, 152.079 10.589, 151.136 11.527 C 150.786 11.874, 150.275 18.156, 150 25.487 L 149.500 38.815 134 25.776 C 114.807 9.630, 111.240 7.952, 103.500 11.424 M 73.453 72.859 L 37.500 102.625 37.241 156.784 L 36.983 210.943 39.694 212.721 C 42.079 214.285, 45.456 214.536, 67.687 214.798 L 92.968 215.096 93.234 187.798 L 93.500 160.500 109.750 160.225 L 126 159.950 126 187.523 L 126 215.096 151.297 214.798 C 173.513 214.536, 176.923 214.284, 179.297 212.727 L 182 210.954 181.956 156.727 L 181.912 102.500 175.598 97.500 C 172.125 94.750, 156.282 81.746, 140.392 68.601 C 124.501 55.457, 111.029 44.340, 110.453 43.898 C 109.823 43.413, 95.089 54.946, 73.453 72.859" stroke="none" fill="#7bb41b" fill-rule="evenodd"/><path d="M -0 115.004 L -0 230.009 109.750 229.754 L 219.500 229.500 219.754 114.750 L 220.008 0 110.004 0 L 0 0 -0 115.004 M 0.483 115.500 C 0.483 178.750, 0.603 204.478, 0.750 172.673 C 0.896 140.868, 0.896 89.118, 0.750 57.673 C 0.603 26.228, 0.483 52.250, 0.483 115.500 M 103.500 11.424 C 101.850 12.164, 96.675 16.025, 92 20.005 C 87.325 23.985, 66.513 41.419, 45.750 58.747 C 20.391 79.911, 8 90.877, 8 92.153 C 8 94.614, 14.598 103.447, 17.660 105.086 C 20.578 106.647, 19.910 107.116, 45.490 85.583 C 75.033 60.715, 106.258 34.625, 108.071 33.293 C 109.715 32.086, 119.292 39.777, 185.769 95.682 C 198.245 106.173, 198.679 106.444, 201.363 105.414 C 203.758 104.495, 211 94.551, 211 92.180 C 211 90.652, 206.878 86.621, 196.500 78 L 182 65.955 182 39.036 C 182 18.590, 181.699 11.928, 180.750 11.327 C 179.294 10.406, 152.079 10.589, 151.136 11.527 C 150.786 11.874, 150.275 18.156, 150 25.487 L 149.500 38.815 134 25.776 C 114.807 9.630, 111.240 7.952, 103.500 11.424 M 73.453 72.859 L 37.500 102.625 37.241 156.784 L 36.983 210.943 39.694 212.721 C 42.079 214.285, 45.456 214.536, 67.687 214.798 L 92.968 215.096 93.234 187.798 L 93.500 160.500 109.750 160.225 L 126 159.950 126 187.523 L 126 215.096 151.297 214.798 C 173.513 214.536, 176.923 214.284, 179.297 212.727 L 182 210.954 181.956 156.727 L 181.912 102.500 175.598 97.500 C 172.125 94.750, 156.282 81.746, 140.392 68.601 C 124.501 55.457, 111.029 44.340, 110.453 43.898 C 109.823 43.413, 95.089 54.946, 73.453 72.859" stroke="none" fill="#f3f3f3" fill-rule="evenodd"/></svg>