<?xml version="1.0" standalone="no"?>
<!DOCTYPE svg PUBLIC "-//W3C//DTD SVG 20010904//EN"
 "http://www.w3.org/TR/2001/REC-SVG-20010904/DTD/svg10.dtd">
<svg version="1.0" xmlns="http://www.w3.org/2000/svg"
 width="204.000000pt" height="192.000000pt" viewBox="0 0 204.000000 192.000000"
 preserveAspectRatio="xMidYMid meet">

<g transform="translate(0.000000,192.000000) scale(0.100000,-0.100000)"
fill="#000000" stroke="none">
<path d="M497 1494 c-283 -251 -482 -436 -488 -452 -16 -40 5 -98 41 -117 43
-22 84 -19 119 10 l30 26 3 -413 3 -413 25 -45 c14 -24 40 -55 59 -67 l34 -23
697 0 697 0 34 23 c19 12 45 43 59 67 l25 45 3 413 3 413 30 -26 c35 -29 76
-32 119 -10 36 19 57 77 41 117 -6 16 -205 201 -488 452 l-478 426 -45 0 -45
0 -478 -426z m661 74 c76 -68 213 -190 305 -272 l167 -149 0 -479 0 -478 -150
0 -150 0 0 248 c0 138 -5 263 -10 284 -6 20 -22 46 -37 58 -24 19 -39 20 -263
20 -224 0 -239 -1 -263 -20 -15 -12 -31 -38 -37 -58 -5 -21 -10 -146 -10 -284
l0 -248 -150 0 -150 0 0 478 0 479 161 144 c89 79 225 201 303 271 78 70 142
127 144 127 1 1 65 -54 140 -121z m-35 -1176 l2 -202 -102 0 -103 0 0 205 0
206 100 -3 101 -3 2 -203z"/>
</g>
</svg>
