<?xml version="1.0" standalone="no"?>
<!DOCTYPE svg PUBLIC "-//W3C//DTD SVG 20010904//EN"
 "http://www.w3.org/TR/2001/REC-SVG-20010904/DTD/svg10.dtd">
<svg version="1.0" xmlns="http://www.w3.org/2000/svg"
 width="204.000000pt" height="192.000000pt" viewBox="0 0 204.000000 192.000000"
 preserveAspectRatio="xMidYMid meet">

<g transform="translate(0.000000,192.000000) scale(0.100000,-0.100000)"
fill="#000000" stroke="none">
<path d="M948 1845 c-80 -41 -286 -167 -584 -357 -99 -64 -198 -125 -220 -136
-21 -11 -60 -39 -86 -62 -42 -37 -48 -47 -48 -82 0 -54 14 -76 54 -83 38 -8
66 5 216 95 102 61 354 215 488 299 210 131 244 151 252 151 5 0 78 -43 162
-97 329 -207 646 -401 709 -434 69 -35 139 -2 139 66 0 46 -64 107 -171 164
l-79 42 -2 222 -3 222 -240 0 -240 0 -3 -50 c-2 -27 -7 -54 -11 -58 -5 -5 -56
21 -115 57 -120 75 -144 79 -218 41z"/>
<path d="M810 1441 c-107 -65 -226 -138 -265 -161 -70 -43 -255 -167 -288
-193 -16 -13 -17 -48 -15 -528 l3 -514 132 -3 133 -3 2 338 3 338 260 0 260 0
5 -335 5 -335 370 0 370 0 2 520 3 520 -133 86 c-72 47 -175 112 -227 144
-108 66 -176 108 -306 189 -50 31 -97 56 -105 56 -8 0 -102 -54 -209 -119z
m885 -926 l0 -200 -217 -3 -218 -2 0 205 0 205 218 -2 217 -3 0 -200z"/>
</g>
</svg>
