<svg width="17.143066" height="15.000000" viewBox="0 0 17.1431 15" fill="none" xmlns="http://www.w3.org/2000/svg" xmlns:xlink="http://www.w3.org/1999/xlink">
	<desc>
			Created with Pixso.
	</desc>
	<defs>
		<clipPath id="clip0_26372">
			<rect id="Btn like/default" width="17.142855" height="15.000000" fill="white" fill-opacity="0"/>
		</clipPath>
	</defs>
	<rect id="Btn like/default" width="17.142855" height="15.000000" fill="#FFFFFF" fill-opacity="0"/>
	<g clip-path="url(#clip0_26372)">
		<path id="Vector" d="M8.25879 1.63672C5.23389 -1.80273 0 0.576172 0 5.08203C0 8.65625 7.99854 14.2383 8.76221 14.9941L8.76904 15L8.77734 14.9922C9.55273 14.2305 17.1431 8.65234 17.1431 5.08203C17.1431 0.611328 12.2676 -1.79688 9.27832 1.63477C9.10156 1.83789 8.93115 2.06055 8.76904 2.30469C8.60742 2.06055 8.43701 1.83789 8.25879 1.63672ZM8.76318 13.9492Q8.90576 13.8301 9.08301 13.6855Q10.354 12.6387 11.1533 11.9355Q12.5645 10.6934 13.5962 9.60547Q14.8921 8.23828 15.5874 7.12109Q16.3428 5.90625 16.3428 5.08203Q16.3428 4.33594 16.1367 3.65625Q15.9766 3.12891 15.7007 2.67188Q15.6431 2.57617 15.5806 2.48438Q15.3096 2.08398 14.9629 1.76562Q14.8647 1.67578 14.7607 1.59375Q14.3755 1.28711 13.9395 1.0957Q13.853 1.05859 13.7642 1.02539Q13.3584 0.871094 12.9409 0.828125Q12.8091 0.8125 12.6758 0.810547Q12.4321 0.804688 12.1934 0.833984Q11.8735 0.875 11.562 0.982422Q10.981 1.18164 10.4644 1.5957Q9.89648 2.05273 9.43555 2.74805L8.76855 3.75391L8.10205 2.74609Q7.64453 2.05664 7.06494 1.59961Q6.57715 1.2168 6.02344 1.01367Q5.97363 0.996094 5.92383 0.980469Q5.66846 0.894531 5.40576 0.849609Q5.07666 0.792969 4.73633 0.800781Q4.59375 0.802734 4.45264 0.818359Q4.00244 0.861328 3.56299 1.01562Q3.38184 1.08008 3.2085 1.16016Q2.83057 1.33594 2.48975 1.5918Q2.26172 1.76367 2.06104 1.96094Q1.81592 2.20312 1.61133 2.48828Q1.46826 2.68555 1.34961 2.89844Q1.14844 3.25977 1.01904 3.66016Q1.01514 3.67188 1.01123 3.68555Q0.799805 4.34961 0.799805 5.08203Q0.799805 5.88281 1.56689 7.06836Q2.27734 8.16602 3.60693 9.51172Q4.66895 10.5879 6.13086 11.8223Q6.96191 12.5254 8.30811 13.5879Q8.59131 13.8125 8.76318 13.9492Z" fill="#00C65E" fill-opacity="1.000000" fill-rule="evenodd"/>
	</g>
</svg>
