<svg width="18" height="14" viewBox="0 0 18 14" fill="none" xmlns="http://www.w3.org/2000/svg">
<path d="M3.28564 8.49805H1.28564C1.01179 8.49805 0.785645 8.2719 0.785645 7.99805V5.99805C0.785645 5.72419 1.01179 5.49805 1.28564 5.49805H3.28564C3.5595 5.49805 3.78564 5.72419 3.78564 5.99805V7.99805C3.78564 8.2719 3.5595 8.49805 3.28564 8.49805ZM3.28564 13.498H1.28564C1.01179 13.498 0.785645 13.2719 0.785645 12.998V10.998C0.785645 10.7242 1.01179 10.498 1.28564 10.498H3.28564C3.5595 10.498 3.78564 10.7242 3.78564 10.998V12.998C3.78564 13.2719 3.5595 13.498 3.28564 13.498ZM3.28564 3.49805H1.28564C1.01179 3.49805 0.785645 3.2719 0.785645 2.99805V0.998047C0.785645 0.724189 1.01179 0.498047 1.28564 0.498047H3.28564C3.5595 0.498047 3.78564 0.724189 3.78564 0.998047V2.99805C3.78564 3.2719 3.5595 3.49805 3.28564 3.49805ZM16.2856 8.49805H6.28564C6.01179 8.49805 5.78564 8.2719 5.78564 7.99805V5.99805C5.78564 5.72419 6.01179 5.49805 6.28564 5.49805H16.2856C16.5595 5.49805 16.7856 5.72419 16.7856 5.99805V7.99805C16.7856 8.2719 16.5595 8.49805 16.2856 8.49805ZM16.2856 13.498H6.28564C6.01179 13.498 5.78564 13.2719 5.78564 12.998V10.998C5.78564 10.7242 6.01179 10.498 6.28564 10.498H16.2856C16.5595 10.498 16.7856 10.7242 16.7856 10.998V12.998C16.7856 13.2719 16.5595 13.498 16.2856 13.498ZM5.78564 2.99805V0.998047C5.78564 0.724189 6.01179 0.498047 6.28564 0.498047H16.2856C16.5595 0.498047 16.7856 0.724189 16.7856 0.998047V2.99805C16.7856 3.2719 16.5595 3.49805 16.2856 3.49805H6.28564C6.01179 3.49805 5.78564 3.2719 5.78564 2.99805Z" fill="white" stroke="#DADCDC"/>
</svg>
