<svg width="91.000000" height="47.000000" viewBox="0 0 91 47" fill="none" xmlns="http://www.w3.org/2000/svg" xmlns:xlink="http://www.w3.org/1999/xlink">
	<desc>
			Created with Pixso.
	</desc>
	<defs/>
	<path id="Vector" d="M0 13.37L10.23 13.37L10.23 38.6L14.64 38.6C24.51 38.6 29.45 33.42 29.44 23.05C29.44 12.9 24.86 7.83 15.7 7.83L13.85 7.83L13.85 -0.38L15.17 -0.38C23.05 -0.38 29.18 1.66 33.54 5.75C37.91 9.83 40.09 15.52 40.09 22.81C40.09 30.58 37.83 36.52 33.31 40.65C28.79 44.77 22.24 46.84 13.67 46.87L0 46.87L0 13.37Z" fill="#00C65E" fill-opacity="1.000000" fill-rule="nonzero"/>
	<path id="Vector" d="M0 -0.38L10.24 -0.38L10.24 9.47L0 9.47L0 -0.38Z" fill="#00C65E" fill-opacity="1.000000" fill-rule="evenodd"/>
	<path id="left / H3" d="M70.67 33.44L70.67 12.7L65.88 12.7L65.88 33.44L70.67 33.44ZM46.81 21.36Q45.9 23.18 45.9 25.59Q45.9 28 46.81 29.84Q47.56 31.36 48.76 32.3Q49.01 32.5 49.29 32.67Q49.96 33.1 50.69 33.34Q51.67 33.67 52.76 33.67Q54.42 33.67 55.66 33Q56.71 32.43 57.37 31.57Q57.5 31.4 57.61 31.22L57.61 33.44L62.41 33.44L62.41 17.8L57.61 17.8L57.61 20.01Q57.52 19.86 57.41 19.71Q56.76 18.82 55.69 18.25Q54.45 17.58 52.79 17.58Q51.57 17.58 50.49 17.97Q49.86 18.2 49.29 18.56Q49.01 18.72 48.76 18.92Q47.56 19.85 46.81 21.36ZM80.32 40.87L90.13 17.8L84.95 17.8L81.36 27.58L77.74 17.8L72.39 17.8L78.75 32.91L75.16 40.87L80.32 40.87ZM56.87 23.09Q57.61 24.07 57.61 25.62Q57.61 27.16 56.87 28.15Q56.75 28.31 56.62 28.45Q56.12 28.97 55.51 29.23Q54.9 29.48 54.19 29.48Q53.51 29.48 52.92 29.24Q52.28 28.98 51.76 28.44Q51.63 28.3 51.51 28.14Q50.77 27.14 50.77 25.59Q50.77 24.02 51.53 23.04Q51.64 22.9 51.76 22.78Q52.27 22.26 52.88 22.01Q53.48 21.75 54.19 21.75Q54.9 21.75 55.49 22Q56.11 22.26 56.62 22.79Q56.75 22.93 56.87 23.09Z" fill="#00C65E" fill-opacity="1.000000" fill-rule="evenodd"/>
</svg>
