<svg width="89" height="31" viewBox="0 0 89 31" fill="none" xmlns="http://www.w3.org/2000/svg">
<path d="M0.274414 8.8315H7.37515V25.0331H10.4275C17.2766 25.0331 20.6997 21.7054 20.6971 15.0499C20.6971 8.53044 17.5189 5.27189 11.1625 5.27428H9.88022V0L10.797 0C16.2645 0 20.5123 1.31201 23.5406 3.93603C26.5688 6.56004 28.0816 10.2134 28.0789 14.8961C28.0789 19.8817 26.5113 23.6985 23.3759 26.3463C20.2406 28.9942 15.7022 30.3265 9.76081 30.3432H0.274414V8.8315Z" />
<path d="M7.37917 0H0.274414V6.32985H7.37917V0Z" />
<path d="M31.7716 15.1319C31.7716 14.0999 31.9636 13.1939 32.3476 12.4139C32.7436 11.6339 33.2776 11.0339 33.9496 10.6139C34.6216 10.1939 35.3716 9.98387 36.1996 9.98387C36.9076 9.98387 37.5256 10.1279 38.0536 10.4159C38.5936 10.7039 39.0076 11.0819 39.2956 11.5499V10.1279H42.3736V20.1719H39.2956V18.7499C38.9956 19.2179 38.5756 19.5959 38.0356 19.8839C37.5076 20.1719 36.8896 20.3159 36.1816 20.3159C35.3656 20.3159 34.6216 20.1059 33.9496 19.6859C33.2776 19.2539 32.7436 18.6479 32.3476 17.8679C31.9636 17.0759 31.7716 16.1639 31.7716 15.1319ZM39.2956 15.1499C39.2956 14.3819 39.0796 13.7759 38.6476 13.3319C38.2276 12.8879 37.7116 12.6659 37.0996 12.6659C36.4876 12.6659 35.9656 12.8879 35.5336 13.3319C35.1136 13.7639 34.9036 14.3639 34.9036 15.1319C34.9036 15.8999 35.1136 16.5119 35.5336 16.9679C35.9656 17.4119 36.4876 17.6339 37.0996 17.6339C37.7116 17.6339 38.2276 17.4119 38.6476 16.9679C39.0796 16.5239 39.2956 15.9179 39.2956 15.1499ZM47.6784 6.85187V20.1719H44.6004V6.85187H47.6784ZM60.169 10.1279L53.869 24.9419H50.557L52.861 19.8299L48.775 10.1279H52.213L54.535 16.4099L56.839 10.1279H60.169ZM62.722 20.3159C62.182 20.3159 61.738 20.1599 61.39 19.8479C61.054 19.5239 60.886 19.1279 60.886 18.6599C60.886 18.1799 61.054 17.7779 61.39 17.4539C61.738 17.1299 62.182 16.9679 62.722 16.9679C63.25 16.9679 63.682 17.1299 64.018 17.4539C64.366 17.7779 64.54 18.1799 64.54 18.6599C64.54 19.1279 64.366 19.5239 64.018 19.8479C63.682 20.1599 63.25 20.3159 62.722 20.3159ZM76.2801 10.1279V20.1719H73.2021V18.8039C72.8901 19.2479 72.4641 19.6079 71.9241 19.8839C71.3961 20.1479 70.8081 20.2799 70.1601 20.2799C69.3921 20.2799 68.7141 20.1119 68.1261 19.7759C67.5381 19.4279 67.0821 18.9299 66.7581 18.2819C66.4341 17.6339 66.2721 16.8719 66.2721 15.9959V10.1279H69.3321V15.5819C69.3321 16.2539 69.5061 16.7759 69.8541 17.1479C70.2021 17.5199 70.6701 17.7059 71.2581 17.7059C71.8581 17.7059 72.3321 17.5199 72.6801 17.1479C73.0281 16.7759 73.2021 16.2539 73.2021 15.5819V10.1279H76.2801ZM77.879 15.1319C77.879 14.0999 78.071 13.1939 78.455 12.4139C78.851 11.6339 79.385 11.0339 80.057 10.6139C80.729 10.1939 81.479 9.98387 82.307 9.98387C83.015 9.98387 83.633 10.1279 84.161 10.4159C84.701 10.7039 85.115 11.0819 85.403 11.5499V10.1279H88.481V20.1719H85.403V18.7499C85.103 19.2179 84.683 19.5959 84.143 19.8839C83.615 20.1719 82.997 20.3159 82.289 20.3159C81.473 20.3159 80.729 20.1059 80.057 19.6859C79.385 19.2539 78.851 18.6479 78.455 17.8679C78.071 17.0759 77.879 16.1639 77.879 15.1319ZM85.403 15.1499C85.403 14.3819 85.187 13.7759 84.755 13.3319C84.335 12.8879 83.819 12.6659 83.207 12.6659C82.595 12.6659 82.073 12.8879 81.641 13.3319C81.221 13.7639 81.011 14.3639 81.011 15.1319C81.011 15.8999 81.221 16.5119 81.641 16.9679C82.073 17.4119 82.595 17.6339 83.207 17.6339C83.819 17.6339 84.335 17.4119 84.755 16.9679C85.187 16.5239 85.403 15.9179 85.403 15.1499Z" />
</svg>
