<svg width="20.000000" height="34.775391" viewBox="0 0 20 34.7754" fill="none" xmlns="http://www.w3.org/2000/svg" xmlns:xlink="http://www.w3.org/1999/xlink">
	<desc>
			Created with Pixso.
	</desc>
	<defs/>
	<rect id="Btn photo slider" width="20.000002" height="34.776211" transform="matrix(-1 0 0 1 20 0)" fill="#FFFFFF" fill-opacity="0"/>
	<path id="Union" d="M0.76 19.23L15.53 34C16.55 35.03 18.21 35.03 19.23 34C20.25 32.99 20.25 31.33 19.23 30.31L6.3 17.38L19.23 4.45C20.25 3.43 20.25 1.78 19.23 0.76C18.21 -0.26 16.56 -0.26 15.54 0.76L0.82 15.48C0.8 15.5 0.78 15.51 0.76 15.54C-0.13 16.43 -0.24 17.81 0.42 18.82C0.52 18.97 0.63 19.1 0.76 19.23Z" fill="#00C65E" fill-opacity="1.000000" fill-rule="evenodd"/>
</svg>
