<svg width="12" height="11" viewBox="0 0 12 11" fill="none" xmlns="http://www.w3.org/2000/svg">
<path d="M5.50746 0.756545C5.72185 0.109797 6.65297 0.109797 6.86664 0.756545L7.63126 3.06827C7.67798 3.20905 7.76879 3.33173 7.89072 3.41875C8.01264 3.50577 8.15944 3.55269 8.31014 3.5528H10.7841C11.4765 3.5528 11.7638 4.42356 11.2043 4.82382L9.20339 6.25215C9.08122 6.33924 8.99024 6.46212 8.94351 6.60316C8.89679 6.74419 8.8967 6.89615 8.94328 7.03723L9.7079 9.34895C9.92228 9.9957 9.16838 10.5343 8.60741 10.134L6.60652 8.70572C6.48447 8.61864 6.33752 8.57175 6.18669 8.57175C6.03587 8.57175 5.88891 8.61864 5.76686 8.70572L3.76598 10.134C3.20573 10.5343 2.45254 9.9957 2.6662 9.34895L3.43083 7.03723C3.4774 6.89615 3.47732 6.74419 3.43059 6.60316C3.38386 6.46212 3.29289 6.33924 3.17071 6.25215L1.17054 4.82453C0.611003 4.42426 0.898988 3.5535 1.59072 3.5535H4.06397C4.21478 3.55354 4.36174 3.50669 4.48381 3.41966C4.60588 3.33262 4.6968 3.20987 4.74355 3.06897L5.50818 0.757247L5.50746 0.756545Z" fill="#363A45"/>
</svg>
