<svg width="11.000000"
	 height="10.000000"
	 viewBox="0 0 11 10"
	 xmlns="http://www.w3.org/2000/svg"
	 xmlns:xlink="http://www.w3.org/1999/xlink">
	<defs />
	<path id="Vector"
		  d="M4.04 -0.37C4.26 -1.02 5.2 -1.02 5.42 -0.37L6.19 1.97C6.24 2.11 6.33 2.24 6.45 2.32C6.58 2.41 6.72 2.46 6.88 2.46L9.38 2.46C10.08 2.46 10.37 3.34 9.81 3.75L7.78 5.19C7.66 5.28 7.57 5.4 7.52 5.55C7.47 5.69 7.47 5.84 7.52 5.99L8.29 8.32C8.51 8.98 7.75 9.52 7.18 9.12L5.15 7.67C5.03 7.58 4.88 7.54 4.73 7.54C4.58 7.54 4.43 7.58 4.3 7.67L2.28 9.12C1.71 9.52 0.95 8.98 1.17 8.32L1.94 5.99C1.99 5.84 1.99 5.69 1.94 5.55C1.89 5.4 1.8 5.28 1.68 5.19L-0.35 3.75C-0.91 3.34 -0.62 2.46 0.08 2.46L2.58 2.46C2.73 2.46 2.88 2.41 3.01 2.33C3.13 2.24 3.22 2.11 3.27 1.97L4.04 -0.37L4.04 -0.37Z"
		  fill-opacity="1.000000"
		  fill-rule="nonzero" />
</svg>