<?xml version="1.0" standalone="no"?>
<!DOCTYPE svg PUBLIC "-//W3C//DTD SVG 20010904//EN"
 "http://www.w3.org/TR/2001/REC-SVG-20010904/DTD/svg10.dtd">
<svg version="1.0" xmlns="http://www.w3.org/2000/svg"
 width="225.000000pt" height="225.000000pt" viewBox="0 0 225.000000 225.000000"
 preserveAspectRatio="xMidYMid meet">

<g transform="translate(0.000000,225.000000) scale(0.100000,-0.100000)"
fill="#000000" stroke="none">
<path d="M1010 2125 c-175 -32 -348 -161 -423 -315 -38 -77 -67 -174 -67 -220
0 -17 -10 -34 -30 -48 -43 -32 -52 -77 -48 -235 l3 -139 33 -29 c63 -56 161
-25 176 56 4 19 8 35 10 35 2 0 45 -22 97 -49 52 -27 128 -59 169 -72 50 -14
82 -30 96 -47 17 -21 32 -26 80 -30 73 -5 108 8 129 48 21 40 12 83 -22 110
-20 15 -41 20 -89 20 -53 0 -67 -4 -93 -26 l-31 -26 -52 18 c-78 25 -167 67
-231 107 l-57 37 0 70 c0 80 -17 131 -53 154 -22 15 -23 20 -15 71 25 163 143
322 293 396 65 31 175 59 240 59 65 0 175 -28 240 -59 150 -74 268 -233 293
-395 8 -53 8 -55 -19 -75 -42 -31 -52 -79 -48 -235 l4 -138 33 -29 c45 -40 99
-40 144 0 l33 29 3 139 c4 158 -5 203 -48 235 -20 14 -30 31 -30 48 0 46 -29
143 -67 220 -76 157 -248 283 -428 315 -97 17 -128 17 -225 0z m-432 -647 c8
-8 12 -55 12 -144 0 -107 -3 -136 -16 -148 -8 -9 -19 -16 -24 -16 -5 0 -16 7
-24 16 -13 12 -16 41 -16 148 0 135 5 156 40 156 9 0 21 -5 28 -12z m1150 0
c8 -8 12 -55 12 -144 0 -107 -3 -136 -16 -148 -8 -9 -19 -16 -24 -16 -5 0 -16
7 -24 16 -13 12 -16 41 -16 148 0 135 5 156 40 156 9 0 21 -5 28 -12z m-553
-358 c0 -11 -13 -16 -44 -18 -45 -3 -68 8 -56 28 11 17 100 9 100 -10z"/>
<path d="M1479 1716 c-45 -42 -121 -71 -224 -85 -231 -33 -334 -73 -438 -171
-55 -51 -67 -68 -65 -89 5 -43 35 -38 87 17 94 98 173 133 380 167 145 24 236
49 247 66 3 5 10 9 15 9 7 0 10 -73 7 -217 -3 -218 -3 -218 -32 -278 -78 -159
-248 -242 -411 -202 -86 21 -157 66 -206 131 -58 77 -67 86 -83 80 -25 -10
-27 -34 -6 -75 22 -41 89 -115 129 -140 28 -18 25 -45 -12 -100 l-23 -34 -104
-6 c-107 -6 -164 -22 -229 -61 -150 -91 -256 -248 -295 -440 -19 -92 -20 -150
-4 -166 17 -17 1809 -17 1826 0 16 16 15 74 -4 166 -39 192 -145 349 -295 440
-65 39 -122 55 -229 61 l-104 6 -23 34 c-39 58 -40 81 -7 105 83 58 155 171
174 275 15 79 13 514 -2 529 -18 18 -30 15 -69 -22z m-413 -857 c57 -9 151 -2
196 16 14 6 22 -2 37 -37 10 -24 30 -58 45 -76 26 -30 31 -32 95 -32 209 0
370 -96 464 -277 36 -70 77 -202 77 -250 l0 -23 -212 2 -213 3 -5 85 c-5 83
-6 85 -30 85 -25 0 -25 -2 -28 -88 l-3 -87 -364 0 -364 0 -3 87 c-3 86 -3 88
-28 88 -24 0 -25 -2 -30 -85 l-5 -85 -213 -3 -212 -2 0 23 c0 48 41 180 77
250 94 181 255 277 464 277 64 0 69 2 95 32 15 18 35 52 45 76 15 35 23 43 37
37 9 -4 44 -11 78 -16z"/>
</g>
</svg>
