<svg width="13" height="13" viewBox="0 0 13 13" fill="none" xmlns="http://www.w3.org/2000/svg">
<path fill-rule="evenodd" clip-rule="evenodd" d="M1.23193 12.5908C1.23193 12.5908 0.231934 12.5908 0.231934 11.5908C0.231934 10.5908 1.23193 7.59082 6.23193 7.59082C11.2319 7.59082 12.2319 10.5908 12.2319 11.5908C12.2319 12.5908 11.2319 12.5908 11.2319 12.5908H1.23193ZM6.23193 6.59082C7.02758 6.59082 7.79065 6.27475 8.35325 5.71214C8.91586 5.14953 9.23193 4.38647 9.23193 3.59082C9.23193 2.79517 8.91586 2.03211 8.35325 1.4695C7.79065 0.906891 7.02758 0.59082 6.23193 0.59082C5.43628 0.59082 4.67322 0.906891 4.11061 1.4695C3.548 2.03211 3.23193 2.79517 3.23193 3.59082C3.23193 4.38647 3.548 5.14953 4.11061 5.71214C4.67322 6.27475 5.43628 6.59082 6.23193 6.59082Z"/>
</svg>
